<?xml version="1.0" encoding="UTF-8"?>
<svg width="523px" height="672px" viewBox="0 0 523 672" version="1.1" xmlns="http://www.w3.org/2000/svg" xmlns:xlink="http://www.w3.org/1999/xlink">
    <!-- Generator: Sketch 50.2 (55047) - http://www.bohemiancoding.com/sketch -->
    <title>Ballot Box</title>
    <desc>Created with Sketch.</desc>
    <defs></defs>
    <g id="Page-1" stroke="none" stroke-width="1" fill="none" fill-rule="evenodd">
        <g id="Ballot-Box">
            <rect id="Rectangle-8" fill="#C1D0E0" x="0" y="398" width="523" height="274"></rect>
            <rect id="Rectangle-8" fill="#D1E1F1" x="0" y="319" width="523" height="79"></rect>
            <rect id="Rectangle-9" fill="#8795A4" x="59" y="351" width="405" height="15"></rect>
            <g id="bird" transform="translate(261.841954, 526.578030) rotate(-20.000000) translate(-261.841954, -526.578030) translate(154.841954, 435.078030)" fill="#DEEEFE" fill-rule="nonzero">
                <g id="Group" transform="translate(106.521606, 91.639125) scale(-1, 1) rotate(-180.000000) translate(-106.521606, -91.639125) translate(0.021606, 0.639125)">
                    <path d="M94.8639318,180.77788 C93.4241045,180.151563 93.2025927,179.183618 94.420908,178.728115 C94.8639318,178.557301 95.5284675,177.361605 95.9161133,176.165909 C96.2483811,174.913275 96.8575388,173.660641 97.3005626,173.319013 C98.1866101,172.521882 98.2973661,169.390297 97.4113185,169.390297 C97.0790507,169.390297 95.5284675,170.870683 93.9778843,172.635758 C86.9448818,180.664004 86.7787479,180.77788 83.6775815,180.77788 C80.4656591,180.77788 79.7457454,179.980749 81.0194388,177.817108 C81.4624626,177.076916 82.0162423,175.767344 82.1823762,174.856337 C82.4038881,173.888392 83.1238017,172.351069 83.7883374,171.440062 C84.4528731,170.472117 85.2835426,168.877856 85.6158105,167.909911 L86.2249682,166.087898 L83.6775815,167.226656 C82.2931322,167.852973 80.7425489,168.707042 80.2441472,169.162545 C79.0258318,170.301304 78.8596979,170.187428 76.699957,167.966849 C74.4294601,165.689333 74.3740821,165.233829 75.8692874,163.29794 C76.4784451,162.500809 76.9768468,161.418989 76.9768468,160.906548 C76.9768468,160.394106 78.0844063,157.661087 79.5242335,154.928067 C80.9086829,152.138109 81.9054863,149.518965 81.7393524,149.120399 C81.1855727,147.696951 78.638186,148.209393 67.5625916,152.081171 C66.1781423,152.536674 63.3538657,153.390743 61.1941248,153.960122 C59.0897618,154.586439 56.5977531,155.326632 55.6563276,155.66826 C52.6659171,156.75008 48.5125692,158.059652 44.857623,159.141472 C40.0951174,160.56492 36.3294153,161.817554 32.951359,163.127126 C31.4561538,163.753443 29.2964129,164.436698 28.2442314,164.607512 C27.1920499,164.835264 25.4199548,165.461581 24.3677733,165.974022 C23.3155919,166.486463 21.2112289,167.283594 19.6606457,167.625222 C18.1654405,168.023787 16.5041013,168.707042 16.0610775,169.105607 C15.2857859,169.788862 14.7320062,169.731925 11.9631076,168.593166 C7.86513765,166.885029 7.58824779,166.543401 8.14202751,164.208947 C8.7511852,161.988368 11.6308397,159.995541 15.2304079,159.369224 C16.4487233,159.19841 18.4977083,158.572093 19.7714016,158.002714 C21.100473,157.433335 23.3155919,156.75008 24.7554191,156.522328 C27.8565856,156.066825 29.5179247,155.326632 29.074901,154.529501 C28.5211212,153.675433 20.3251814,153.960122 15.7288097,154.985005 C12.0738635,155.782135 11.07706,155.839073 8.08664953,155.155818 C6.25917645,154.757253 3.71178974,154.244812 2.49347435,154.073998 C0.112221551,153.675433 -0.884581947,152.024233 0.942891133,151.340978 C1.49667085,151.170164 2.43809638,150.429971 3.04725407,149.746716 C4.26556946,148.323269 10.3571464,146.273504 14.7873842,145.704124 C18.6084642,145.248621 21.045095,144.337614 21.045095,143.483546 C21.045095,142.344787 19.5498898,142.00316 12.6276432,141.775408 C5.04086107,141.547657 3.10263204,141.035215 2.88112016,139.27014 C2.77036421,138.529947 2.88112016,137.732816 3.15801002,137.448127 C3.37952191,137.220375 6.86833415,136.594058 10.8001702,136.081617 C18.6084642,135.113672 22.1526544,134.316541 22.1526544,133.576349 C22.1526544,132.72228 20.3805593,132.266776 15.8949436,131.982087 C13.5136908,131.811273 11.4647058,131.412708 11.2985719,131.184956 C11.132438,130.900267 11.9631076,129.761508 13.070667,128.565812 C15.064274,126.572985 15.2857859,126.459109 19.7160237,126.231358 C25.5307107,125.88973 25.9183566,125.548103 25.032309,121.050007 C24.1462614,116.665788 24.1462614,116.494974 25.8076006,115.868657 C26.6382702,115.527029 27.9119635,114.729899 28.7426331,114.103582 C29.5179247,113.477265 31.7884216,111.712189 33.7266506,110.174865 C35.6648796,108.580604 37.4369747,107.32797 37.6584866,107.32797 C38.1568884,107.32797 44.4699772,102.146619 46.3528283,100.267668 C47.0727419,99.5274754 50.0631524,97.6485242 52.9981849,96.1112005 C60.806479,92.0686085 65.2367167,87.5705132 73.2111447,75.4996753 C73.9310584,74.4747928 75.4816416,72.4250279 76.7553349,70.9446421 C77.9736503,69.5211942 80.576415,66.275733 82.514644,63.7704648 C84.4528731,61.2651965 86.8895038,58.3044249 87.9416853,57.1656666 C90.54445,54.261833 95.8053573,46.9168419 95.8053573,46.1197111 C95.8053573,45.7780836 96.414515,44.6393253 97.1898067,43.557505 C99.6818154,40.0842921 99.4049255,39.5718509 92.6488129,33.8780594 C89.2153787,30.9742257 89.0492448,30.9172878 82.7361559,29.8354674 C79.1919657,29.2660883 73.7095465,28.5828333 70.5530021,28.4120196 C67.3410797,28.1842679 64.6275591,27.7857025 64.4060472,27.5010129 C64.2399132,27.1593854 64.3506692,26.3622546 64.682937,25.7359376 C65.5689846,23.9139243 66.4550321,18.8464499 66.4550321,15.9426162 C66.4550321,13.2095963 66.621166,12.9818446 73.0450108,4.72584694 C76.9214689,-0.284689575 78.0844063,-0.512441235 82.514644,2.56220617 C83.2899357,3.13158532 85.2835426,4.49809528 86.9448818,5.63685358 C88.606221,6.77561188 90.599828,8.14212184 91.3751196,8.65456308 C92.1504112,9.16700431 94.476286,10.7612659 96.525271,12.1277759 L100.290973,14.6899821 L106.548684,14.2914167 C109.982118,14.063665 113.692442,13.6650996 114.689246,13.38041 C115.741427,13.0387825 118.787216,12.6402171 121.445358,12.4124655 C125.930974,12.070838 126.373998,12.1847138 127.426179,13.2665342 C129.58592,15.6579266 131.247259,14.2344787 131.247259,10.078011 C131.247259,7.40192895 131.911795,6.71867397 135.455985,5.80766733 C137.615726,5.23828818 138.391018,4.66890903 139.830845,2.56220617 C140.772271,1.1387583 141.935208,0 142.322854,0 C142.765878,0 143.375035,1.02488247 143.707303,2.39139243 C144.814863,6.94642563 147.694517,8.54068725 149.2451,5.40910192 C149.909636,4.09952988 150.463416,3.70096447 151.737109,3.70096447 C153.730716,3.70096447 154.339874,4.61197111 153.176936,5.92154316 C152.733913,6.43398439 152.124755,7.80049435 151.903243,8.93925265 C151.626353,10.078011 150.62955,11.9000242 149.632746,13.0387825 C147.916029,15.0316096 147.694517,15.0885475 143.984193,15.0885475 C140.827649,15.0885475 139.886223,15.3162991 139.000176,16.2273058 C135.899009,19.415829 138.723286,20.6115252 150.518794,21.0670285 C154.949032,21.2947802 162.314302,23.458421 163.144971,24.8249309 C163.311105,25.1096205 163.809507,25.3373722 164.307909,25.3373722 C165.193956,25.3373722 167.187563,26.5330684 174.608212,31.4297291 C176.657197,32.7393011 179.979875,35.0168177 182.084238,36.3263898 C184.133223,37.6928997 187.234389,39.7996026 189.061862,41.0522367 C190.833957,42.2479329 192.827564,43.6144429 193.4921,43.9560704 C195.208817,45.0378907 198.476118,44.867077 199.915945,43.6713808 C201.078882,42.7034362 201.13426,42.3618087 200.691237,39.7996026 C200.303591,37.6359618 200.414347,36.3833277 201.078882,34.2766248 C202.51871,29.9493433 202.961733,29.8354674 205.453742,32.7393011 C207.502727,35.1876315 207.613483,35.472321 207.668861,39.1732855 C207.668861,43.0450637 208.167263,44.2976979 211.102295,47.8278486 C211.822209,48.6819173 212.043721,50.219241 212.154477,54.3187709 L212.265233,59.6709349 L209.551712,62.7455823 C207.613483,64.9092231 205.50912,66.4465468 202.131064,68.1546842 C198.033094,70.2613871 196.814778,70.6030146 193.049076,70.7738283 C190.50169,70.9446421 186.237586,70.6030146 182.693396,70.0336354 C172.669983,68.3824359 169.679572,69.2365046 168.405879,74.303979 C167.962855,76.2398682 166.74454,85.4068725 165.36009,98.2179033 C164.584799,105.221267 165.027822,103.968633 158.160954,117.292105 C156.998017,119.455746 155.170543,122.302641 154.062984,123.612213 C152.955425,124.921785 151.127951,127.25624 150.07577,128.736626 C149.023589,130.273949 147.805273,131.868211 147.417627,132.380652 C146.974604,132.836156 144.150327,136.707934 141.104539,140.92134 C133.850024,150.885475 132.410197,152.593612 128.921385,155.269694 C125.930974,157.604149 120.614689,162.102244 119.064106,163.696506 C118.565704,164.208947 117.181255,165.347705 116.018317,166.258712 C113.027907,168.536228 104.112053,176.108971 100.124839,179.809936 C98.2973661,181.404197 96.9682948,181.631949 94.8639318,180.77788 Z" id="Shape"></path>
                </g>
            </g>
            <polygon id="Rectangle-10" fill="#FFFFFF" transform="translate(308.749117, 208.698388) rotate(39.000000) translate(-308.749117, -208.698388) " points="197.553239 30.1983876 419.944996 30.1983876 419.944996 321.674421 339.206673 387.198388 197.553239 387.198388"></polygon>
        </g>
    </g>
</svg>