<svg id="chainnews" height="46" width="398" xmlns="http://www.w3.org/2000/svg"><path fill="currentColor" d="M33.272 21.752h-3.36c-1.68 0-3.408.288-3.84.768-.288-1.056-1.104-3.552-1.68-4.944.864-.24 1.488-1.44 2.208-3.12.288-.672.816-2.16 1.392-4.032h-3.84V5.432h5.088c.384-1.728.72-3.504.96-5.28l5.664 1.008c-.336 1.44-.672 2.832-1.104 4.272h9.936v4.992H33.128c-.864 2.352-1.824 4.656-2.688 6.672h2.832v-5.04H38.6v5.04h5.28v4.656H38.6v4.512h6.576v4.992H38.6v6.432h-5.328v-6.432h-8.88v-4.992h8.88zM23 11.048l-4.944 1.584c-.48-2.64-1.68-6.72-2.784-9.744l4.704-1.392C21.128 4.52 22.424 8.408 23 11.048zm-12.288 24.24l3.504-2.592c.336 1.392 1.056 3.408 1.632 4.368-7.584 5.616-8.928 6.816-9.696 7.824l-.048-.288c-.048.096-.048.192-.048.288-.48-1.008-1.872-2.928-2.736-3.648a6.688 6.688 0 0 0 2.4-5.136v-7.536H1.448V23.72H5.72v-4.992H3.512v-3.264c-.24.432-.576.816-.864 1.104C2.264 15.416.92 12.632.104 11.432 2.312 8.696 3.992 4.616 5.048.488l4.704 1.344a49.014 49.014 0 0 1-1.008 3.216h6.336v4.896H6.824c-.72 1.44-1.44 2.736-2.256 3.984h9.36v4.8h-3.216v4.992h4.56v4.848h-4.56zm12.336-19.392V35.48c.816.432 1.68 1.104 2.832 1.776 2.4 1.44 5.376 1.872 9.072 1.872 2.88 0 7.776-.288 10.896-.72-.48 1.488-1.2 4.272-1.248 5.712-2.4.192-6.72.336-9.696.336-4.128 0-7.008-.72-9.6-2.304-1.68-1.008-3.12-2.208-4.032-2.208-1.152 0-3.024 2.832-4.416 5.232l-3.504-5.328c1.44-1.536 3.024-2.88 4.56-3.744V21.032h-2.784v-5.136zM50.36 45.128V11.864h5.808v33.264zm.864-41.712L55.352.584c2.256 1.968 4.944 4.752 6.192 6.768L57.08 10.52c-1.104-1.968-3.696-5.04-5.856-7.104zm15.072 25.44v3.216c2.832-.192 5.904-.384 9.024-.624v-2.592zm9.024-13.248h-9.024v2.544h9.024zm-9.024 6.528v2.736h9.024v-2.736zm17.808 13.056l-3.696.336v5.424H75.32v-5.04c-6.384.528-12.48.96-17.232 1.344l-.48-4.656c1.104-.048 2.304-.144 3.6-.192v-16.8h-2.592V11.24h24.48v4.368h-2.688v15.456l3.648-.24zM91.832 2.12v36.912c0 2.736-.48 4.08-2.112 4.992-1.584.864-3.936 1.008-7.2 1.008-.192-1.44-.912-3.792-1.584-5.184 1.776.096 3.744.096 4.368.096.672-.048.864-.24.864-.912V7.208H63.512V2.12zM129.376 31.952c.192 0 .384.036.576.108s.376.196.552.372l3.216 3.384c-1.408 1.84-3.172 3.228-5.292 4.164s-4.628 1.404-7.524 1.404c-2.656 0-5.036-.452-7.14-1.356s-3.888-2.152-5.352-3.744-2.588-3.48-3.372-5.664-1.176-4.556-1.176-7.116c0-2.608.448-5.004 1.344-7.188s2.148-4.068 3.756-5.652c1.608-1.584 3.532-2.816 5.772-3.696s4.712-1.32 7.416-1.32c1.312 0 2.548.116 3.708.348s2.244.552 3.252.96 1.936.896 2.784 1.464 1.6 1.196 2.256 1.884l-2.736 3.672c-.176.224-.384.428-.624.612s-.576.276-1.008.276c-.288 0-.56-.064-.816-.192s-.528-.284-.816-.468-.604-.384-.948-.6-.752-.416-1.224-.6-1.024-.34-1.656-.468-1.372-.192-2.22-.192c-1.472 0-2.816.26-4.032.78s-2.26 1.264-3.132 2.232-1.552 2.14-2.04 3.516-.732 2.92-.732 4.632c0 1.792.244 3.384.732 4.776s1.152 2.564 1.992 3.516 1.82 1.676 2.94 2.172 2.32.744 3.6.744c.736 0 1.408-.036 2.016-.108s1.172-.196 1.692-.372 1.016-.404 1.488-.684.948-.628 1.428-1.044c.192-.16.4-.292.624-.396s.456-.156.696-.156zM167.944 41h-8.16V26.216h-14.208V41h-8.16V6.032h8.16v14.616h14.208V6.032h8.16zm38.304 0h-6.288c-.704 0-1.284-.164-1.74-.492s-.772-.748-.948-1.26l-2.064-6.096h-13.296l-2.064 6.096c-.16.448-.472.852-.936 1.212s-1.032.54-1.704.54h-6.336l13.536-34.968h8.304zm-22.464-13.368h9.552l-3.216-9.576-.732-2.148a54.614 54.614 0 0 1-.828-2.676c-.256.976-.52 1.88-.792 2.712s-.528 1.552-.768 2.16zM217.96 41h-8.16V6.032h8.16zm10.752-34.968c.352 0 .648.016.888.048s.456.092.648.18.376.212.552.372.376.376.6.648l16.608 21c-.064-.672-.112-1.324-.144-1.956s-.048-1.228-.048-1.788V6.032h7.152V41h-4.224c-.624 0-1.152-.096-1.584-.288s-.848-.544-1.248-1.056l-16.488-20.832c.048.608.088 1.204.12 1.788s.048 1.132.048 1.644V41h-7.152V6.032z"/><path fill="currentColor" d="M265.32 6.032c.352 0 .648.016.888.048s.456.092.648.18.376.212.552.372.376.376.6.648l16.608 21c-.064-.672-.112-1.324-.144-1.956s-.048-1.228-.048-1.788V6.032h7.152V41h-4.224c-.624 0-1.152-.096-1.584-.288s-.848-.544-1.248-1.056l-16.488-20.832c.048.608.088 1.204.12 1.788s.048 1.132.048 1.644V41h-7.152V6.032zm54.528 0v6.24h-14.352v8.16h10.992v6h-10.992v8.328h14.352V41h-22.512V6.032zm1.968 0h6.816c.704 0 1.292.16 1.764.48s.78.744.924 1.272l4.8 18.24c.16.592.32 1.224.48 1.896s.28 1.376.36 2.112c.16-.752.336-1.46.528-2.124s.376-1.292.552-1.884l5.664-18.24c.144-.448.452-.852.924-1.212s1.044-.54 1.716-.54h2.4c.704 0 1.284.156 1.74.468s.772.74.948 1.284l5.616 18.24c.176.56.36 1.156.552 1.788s.36 1.308.504 2.028c.128-.704.26-1.376.396-2.016s.276-1.24.42-1.8l4.8-18.24c.128-.464.432-.872.912-1.224s1.056-.528 1.728-.528h6.384L361.944 41H354.6l-6.576-21.672c-.112-.336-.228-.704-.348-1.104s-.236-.824-.348-1.272c-.112.448-.228.872-.348 1.272s-.236.768-.348 1.104L339.96 41h-7.344zm73.536 7.104c-.24.384-.492.672-.756.864s-.604.288-1.02.288c-.368 0-.764-.116-1.188-.348s-.904-.492-1.44-.78-1.148-.548-1.836-.78-1.472-.348-2.352-.348c-1.52 0-2.652.324-3.396.972s-1.116 1.524-1.116 2.628c0 .704.224 1.288.672 1.752s1.036.864 1.764 1.2 1.56.644 2.496.924 1.892.592 2.868.936 1.932.748 2.868 1.212 1.768 1.056 2.496 1.776 1.316 1.596 1.764 2.628.672 2.276.672 3.732c0 1.616-.28 3.128-.84 4.536s-1.372 2.636-2.436 3.684-2.376 1.872-3.936 2.472-3.332.9-5.316.9c-1.088 0-2.196-.112-3.324-.336s-2.22-.54-3.276-.948-2.048-.892-2.976-1.452-1.736-1.184-2.424-1.872l2.4-3.792c.176-.288.424-.52.744-.696s.664-.264 1.032-.264c.48 0 .964.152 1.452.456s1.04.64 1.656 1.008 1.324.704 2.124 1.008 1.744.456 2.832.456c1.472 0 2.616-.324 3.432-.972s1.224-1.676 1.224-3.084c0-.816-.224-1.48-.672-1.992s-1.036-.936-1.764-1.272-1.556-.632-2.484-.888-1.88-.54-2.856-.852-1.928-.696-2.856-1.152-1.756-1.056-2.484-1.8-1.316-1.672-1.764-2.784-.672-2.484-.672-4.116c0-1.312.264-2.592.792-3.84s1.304-2.36 2.328-3.336 2.28-1.756 3.768-2.34 3.192-.876 5.112-.876c1.072 0 2.116.084 3.132.252s1.98.416 2.892.744 1.764.72 2.556 1.176 1.5.972 2.124 1.548z" opacity=".5"/></svg>