<?xml version="1.0" encoding="UTF-8"?>
<svg width="556px" height="526px" viewBox="0 0 556 526" version="1.1" xmlns="http://www.w3.org/2000/svg" xmlns:xlink="http://www.w3.org/1999/xlink">
    <!-- Generator: Sketch 50.2 (55047) - http://www.bohemiancoding.com/sketch -->
    <title>Group 2</title>
    <desc>Created with Sketch.</desc>
    <defs></defs>
    <g id="Page-1" stroke="none" stroke-width="1" fill="none" fill-rule="evenodd">
        <g id="Group-2">
            <rect id="Rectangle" fill="#87B9EF" transform="translate(186.629891, 283.917497) rotate(-12.000000) translate(-186.629891, -283.917497) " x="41.8597504" y="67.3672626" width="289.540282" height="433.100468"></rect>
            <rect id="Rectangle" fill="#327CCB" transform="translate(219.561015, 272.033161) rotate(-6.000000) translate(-219.561015, -272.033161) " x="74.7908736" y="36.8442107" width="289.540282" height="470.377901"></rect>
            <rect id="Rectangle" fill="#FFFFFF" x="113" y="0" width="443" height="518"></rect>
            <g id="bird" transform="translate(164.000000, 44.000000)" fill="#327CCB" fill-rule="nonzero">
                <g id="Group" transform="translate(15.500000, 12.500000) scale(-1, 1) rotate(-180.000000) translate(-15.500000, -12.500000) ">
                    <path d="M13.5363395,24.9293342 C13.3310041,24.8429648 13.2994141,24.7094849 13.4731594,24.6466709 C13.5363395,24.6231156 13.6311097,24.4582286 13.6863923,24.2933417 C13.7337773,24.120603 13.82065,23.9478643 13.8838301,23.9007538 C14.0101903,23.7908291 14.0259854,23.3589824 13.8996251,23.3589824 C13.8522401,23.3589824 13.6311097,23.5631281 13.4099793,23.8065327 C12.4069949,24.9136307 12.3833024,24.9293342 11.9410416,24.9293342 C11.4829858,24.9293342 11.3803181,24.8194095 11.5619609,24.5210427 C11.625141,24.4189698 11.7041162,24.2383794 11.7278087,24.1127513 C11.7593988,23.9792714 11.8620665,23.7672739 11.9568366,23.6416457 C12.0516068,23.5081658 12.1700695,23.2883166 12.2174546,23.1548367 L12.3043273,22.9035804 L11.9410416,23.0606156 C11.7436037,23.1469849 11.5224733,23.2647613 11.4513957,23.3275754 C11.2776504,23.4846106 11.2539579,23.468907 10.9459548,23.1626884 C10.6221567,22.8486181 10.6142592,22.785804 10.8274921,22.5188442 C10.9143647,22.4089196 10.9854424,22.2597362 10.9854424,22.1890704 C10.9854424,22.1184045 11.1433927,21.7415201 11.348728,21.3646357 C11.5461659,20.9798995 11.6883211,20.6187186 11.6646286,20.5637563 C11.5856535,20.3674623 11.2223678,20.4381281 9.64286494,20.9720477 C9.44542708,21.0348618 9.04265386,21.1526382 8.7346508,21.2311558 C8.43454526,21.3175251 8.07915711,21.419598 7.94489937,21.4667085 C7.5184336,21.615892 6.92612003,21.7964824 6.40488408,21.9456658 C5.72569786,22.1419598 5.18866689,22.3146985 4.70691851,22.4952889 C4.49368563,22.5816583 4.18568257,22.6758794 4.0356298,22.6994347 C3.88557703,22.7308417 3.63285657,22.8172111 3.4828038,22.8878769 C3.33275103,22.9585427 3.03264549,23.0684673 2.81151509,23.1155779 C2.5982822,23.1705402 2.36135677,23.2647613 2.29817666,23.3197236 C2.18761146,23.4139447 2.10863631,23.406093 1.7137606,23.2490578 C1.12934454,23.013505 1.08985697,22.9663945 1.16883211,22.6444724 C1.25570477,22.3382538 1.66637551,22.0634422 2.17971394,21.9770729 C2.35345926,21.9535176 2.64566729,21.8671482 2.82731011,21.7886307 C3.01685046,21.7101131 3.33275103,21.615892 3.5380864,21.5844849 C3.9803472,21.5216709 4.21727263,21.419598 4.15409251,21.3096734 C4.07511737,21.191897 2.90628526,21.2311558 2.25079157,21.3724874 C1.72955563,21.4824121 1.58740037,21.4902638 1.1609346,21.3960427 C0.900316628,21.3410804 0.537030971,21.2704146 0.363285657,21.2468593 C0.0236925429,21.191897 -0.118462714,20.964196 0.142155257,20.8699749 C0.2211304,20.8464196 0.355388143,20.7443467 0.4422608,20.6501256 C0.616006114,20.4538317 1.48473269,20.1711683 2.11653383,20.0926508 C2.66146231,20.0298367 3.00895294,19.9042085 3.00895294,19.7864322 C3.00895294,19.629397 2.79572006,19.5822864 1.80853077,19.5508794 C0.726571314,19.5194724 0.450158314,19.4488065 0.418568257,19.205402 C0.402773229,19.1033291 0.418568257,18.9934045 0.458055829,18.9541457 C0.489645886,18.9227387 0.987189286,18.8363693 1.5479128,18.7657035 C2.66146231,18.6322236 3.16690323,18.522299 3.16690323,18.4202261 C3.16690323,18.3024497 2.91418277,18.2396357 2.27448411,18.2003769 C1.934891,18.1768216 1.64268297,18.1218593 1.61899043,18.0904523 C1.59529789,18.0511935 1.7137606,17.8941583 1.87171089,17.7292714 C2.1560214,17.4544598 2.18761146,17.4387563 2.8194126,17.4073492 C3.6486516,17.3602387 3.7039342,17.3131281 3.57757397,16.6928392 C3.45121374,16.0882538 3.45121374,16.0646985 3.68813917,15.9783291 C3.80660189,15.9312186 3.98824471,15.821294 4.10670743,15.7349246 C4.21727263,15.6485553 4.54107071,15.4051508 4.81748371,15.1931533 C5.09389671,14.973304 5.34661717,14.8005653 5.37820723,14.8005653 C5.44928486,14.8005653 6.34960148,14.0860553 6.61811697,13.8269472 C6.72078466,13.7248744 7.14725043,13.4657663 7.56581868,13.2537688 C8.6793682,12.696294 9.31116934,12.076005 10.4484114,10.4114322 C10.5510791,10.2701005 10.7722095,9.98743719 10.9538523,9.78329146 C11.1275976,9.58699749 11.4987808,9.13944724 11.7751938,8.79396985 C12.0516068,8.44849246 12.3990974,8.04020101 12.5491502,7.88316583 C12.9203334,7.48272613 13.6705972,6.46984925 13.6705972,6.35992462 C13.6705972,6.31281407 13.7574699,6.15577889 13.8680351,6.00659548 C14.2234232,5.52763819 14.1839357,5.45697236 13.2204389,4.67179648 C12.730793,4.27135678 12.7071005,4.26350503 11.8067839,4.11432161 C11.3013429,4.03580402 10.519489,3.94158291 10.0693307,3.91802764 C9.61127488,3.8866206 9.22429668,3.83165829 9.19270663,3.7923995 C9.16901408,3.74528894 9.18480911,3.63536432 9.2321942,3.54899497 C9.35855443,3.29773869 9.48491466,2.59893216 9.48491466,2.19849246 C9.48491466,1.82160804 9.5086072,1.79020101 10.4247189,0.65169598 C10.9775449,-0.039258794 11.1433927,-0.0706658291 11.7751938,0.353329146 C11.885759,0.431846734 12.1700695,0.620288945 12.4069949,0.777324121 C12.6439204,0.934359296 12.9282309,1.12280151 13.0387961,1.19346734 C13.1493613,1.26413317 13.4810569,1.48398241 13.7732649,1.67242462 L14.3102959,2.02575377 L15.202715,1.97079146 C15.6923609,1.93938442 16.2214943,1.88442211 16.3636496,1.84516332 C16.5137024,1.79805276 16.9480657,1.74309045 17.3271463,1.71168342 C17.966845,1.66457286 18.0300251,1.68027638 18.1800779,1.8294598 C18.4880809,2.15923367 18.7250064,1.9629397 18.7250064,1.38976131 C18.7250064,1.02072864 18.8197765,0.926507538 19.3252175,0.800879397 C19.6332205,0.722361809 19.7437857,0.643844221 19.9491211,0.353329146 C20.0833788,0.157035176 20.2492266,0 20.3045092,0 C20.3676893,0 20.454562,0.141331658 20.5019471,0.329773869 C20.6598974,0.957914573 21.0705681,1.17776382 21.2916985,0.745917085 C21.3864687,0.565326633 21.4654438,0.510364322 21.6470867,0.510364322 C21.9313972,0.510364322 22.0182698,0.635992462 21.852422,0.816582915 C21.7892419,0.887248744 21.7023693,1.07569095 21.6707792,1.23272613 C21.6312916,1.38976131 21.4891364,1.64101759 21.3469811,1.79805276 C21.1021582,2.07286432 21.0705681,2.08071608 20.5414347,2.08071608 C20.0912763,2.08071608 19.9570186,2.11212312 19.8306584,2.23775126 C19.3883976,2.67744975 19.7911708,2.84233668 21.4733413,2.90515075 C22.1051425,2.93655779 23.1555119,3.23492462 23.2739746,3.42336683 C23.2976671,3.46262563 23.3687448,3.49403266 23.4398224,3.49403266 C23.5661826,3.49403266 23.8504931,3.6589196 24.9087601,4.33417085 C25.2009681,4.51476131 25.6748189,4.82883166 25.9749245,5.00942211 C26.2671325,5.19786432 26.7093933,5.4883794 26.9700113,5.66111809 C27.2227317,5.82600503 27.5070423,6.01444724 27.6018124,6.06155779 C27.8466354,6.21074121 28.3125887,6.18718593 28.5179241,6.02229899 C28.6837719,5.8888191 28.6916694,5.84170854 28.6284893,5.4883794 C28.5732067,5.19001256 28.5890017,5.01727387 28.6837719,4.72675879 C28.8891073,4.13002513 28.9522874,4.11432161 29.3076755,4.51476131 C29.5998835,4.85238693 29.6156786,4.89164573 29.6235761,5.40201005 C29.6235761,5.93592965 29.6946537,6.10866834 30.113222,6.59547739 C30.2158897,6.71325377 30.2474797,6.92525126 30.2632747,7.49057789 L30.2790698,8.22864322 L29.8920916,8.65263819 C29.6156786,8.95100503 29.315573,9.16300251 28.8338247,9.39855528 C28.2494086,9.68907035 28.0756633,9.7361809 27.5386323,9.75973618 C27.1753467,9.78329146 26.5672381,9.7361809 26.0617971,9.65766332 C24.6323471,9.42996231 24.2058813,9.54773869 24.0242385,10.2465452 C23.9610583,10.513505 23.787313,11.7776382 23.5898752,13.5442839 C23.47931,14.5100503 23.5424901,14.3373116 22.5631983,16.1746231 C22.3973505,16.4729899 22.1367325,16.8655779 21.9787823,17.0461683 C21.820832,17.2267588 21.560214,17.5486809 21.4101612,17.7528266 C21.2601085,17.9648241 21.0863631,18.1846734 21.0310805,18.2553392 C20.9679004,18.3181533 20.5651272,18.8520729 20.1307639,19.433103 C19.0961895,20.8071608 18.8908542,21.0427136 18.3933108,21.4117462 C17.966845,21.7336683 17.2086836,22.3539573 16.9875532,22.5738065 C16.9164756,22.6444724 16.7190377,22.8015075 16.5531899,22.9271357 C16.1267242,23.241206 14.8552244,24.2854899 14.2866033,24.7958543 C14.0259854,25.0157035 13.836445,25.0471106 13.5363395,24.9293342 Z" id="Shape"></path>
                </g>
            </g>
            <text id="DMM" font-family="Avenir-Book, Avenir" font-size="24" font-weight="normal" fill="#000000">
                <tspan x="201.248" y="67">DMM</tspan>
            </text>
            <rect id="Rectangle-3" fill="#F1F3F2" x="164" y="110" width="175" height="10"></rect>
            <rect id="Rectangle-3" fill="#F1F3F2" x="164" y="227" width="117" height="10"></rect>
            <rect id="Rectangle-3" fill="#F1F3F2" x="307" y="227" width="117" height="10"></rect>
            <rect id="Rectangle-3" fill="#F1F3F2" x="164" y="198" width="309" height="10"></rect>
            <rect id="Rectangle-3" fill="#F1F3F2" x="164" y="169" width="219" height="10"></rect>
            <rect id="Rectangle-3" fill="#F1F3F2" x="164" y="375" width="219" height="10"></rect>
            <rect id="Rectangle-3" fill="#F1F3F2" x="164" y="406" width="241" height="10"></rect>
            <rect id="Rectangle-3" fill="#F1F3F2" x="164" y="344" width="136" height="10"></rect>
            <rect id="Rectangle-3" fill="#F1F3F2" x="331" y="344" width="136" height="10"></rect>
            <rect id="Rectangle-3" fill="#F1F3F2" x="164" y="315" width="219" height="10"></rect>
            <rect id="Rectangle-3" fill="#F1F3F2" x="164" y="286" width="92" height="10"></rect>
        </g>
    </g>
</svg>