<?xml version="1.0" encoding="UTF-8"?>
<svg width="540px" height="462px" viewBox="0 0 540 462" version="1.1" xmlns="http://www.w3.org/2000/svg" xmlns:xlink="http://www.w3.org/1999/xlink">
    <!-- Generator: Sketch 50.2 (55047) - http://www.bohemiancoding.com/sketch -->
    <title>Courthouse</title>
    <desc>Created with Sketch.</desc>
    <defs></defs>
    <g id="Page-1" stroke="none" stroke-width="1" fill="none" fill-rule="evenodd">
        <g id="Courthouse">
            <g id="Group">
                <polygon id="Triangle" fill="#A5B4C5" points="270 0 540 154 0 154"></polygon>
                <polygon id="Triangle-2" fill="#8795A4" points="270 19 477 136 63 136"></polygon>
                <rect id="Rectangle" fill="#C1D0E0" x="0" y="154" width="540" height="18"></rect>
                <rect id="Rectangle" fill="#C1D0E0" x="0" y="444" width="540" height="18"></rect>
                <rect id="Rectangle-2" fill="#A5B4C5" x="21" y="172" width="497" height="17"></rect>
                <rect id="Rectangle-2" fill="#A5B4C5" x="21" y="427" width="497" height="17"></rect>
            </g>
            <rect id="Rectangle-5" fill="#8795A4" x="33" y="189" width="473" height="239"></rect>
            <g id="Group-3" transform="translate(56.000000, 189.000000)">
                <g id="Group-2">
                    <rect id="Rectangle-3" fill="#B5CAE1" x="1" y="0" width="58" height="16"></rect>
                    <rect id="Rectangle-3" fill="#B5CAE1" x="0" y="223" width="58" height="16"></rect>
                    <rect id="Rectangle-4" fill="#DEEEFE" x="10" y="16" width="10" height="207"></rect>
                    <rect id="Rectangle-4" fill="#C1D0E0" x="39" y="16" width="10" height="207"></rect>
                    <rect id="Rectangle-4" fill="#D1E1F1" x="20" y="16" width="19" height="207"></rect>
                </g>
                <g id="Group-2" transform="translate(91.000000, 0.000000)">
                    <rect id="Rectangle-3" fill="#B5CAE1" x="1" y="0" width="58" height="16"></rect>
                    <rect id="Rectangle-3" fill="#B5CAE1" x="0" y="223" width="58" height="16"></rect>
                    <rect id="Rectangle-4" fill="#DEEEFE" x="10" y="16" width="10" height="207"></rect>
                    <rect id="Rectangle-4" fill="#C1D0E0" x="39" y="16" width="10" height="207"></rect>
                    <rect id="Rectangle-4" fill="#D1E1F1" x="20" y="16" width="19" height="207"></rect>
                </g>
                <g id="Group-2" transform="translate(278.000000, 0.000000)">
                    <rect id="Rectangle-3" fill="#B5CAE1" x="1" y="0" width="58" height="16"></rect>
                    <rect id="Rectangle-3" fill="#B5CAE1" x="0" y="223" width="58" height="16"></rect>
                    <rect id="Rectangle-4" fill="#DEEEFE" x="10" y="16" width="10" height="207"></rect>
                    <rect id="Rectangle-4" fill="#C1D0E0" x="39" y="16" width="10" height="207"></rect>
                    <rect id="Rectangle-4" fill="#D1E1F1" x="20" y="16" width="19" height="207"></rect>
                </g>
                <g id="Group-2" transform="translate(369.000000, 0.000000)">
                    <rect id="Rectangle-3" fill="#B5CAE1" x="1" y="0" width="58" height="16"></rect>
                    <rect id="Rectangle-3" fill="#B5CAE1" x="0" y="223" width="58" height="16"></rect>
                    <rect id="Rectangle-4" fill="#DEEEFE" x="10" y="16" width="10" height="207"></rect>
                    <rect id="Rectangle-4" fill="#C1D0E0" x="39" y="16" width="10" height="207"></rect>
                    <rect id="Rectangle-4" fill="#D1E1F1" x="20" y="16" width="19" height="207"></rect>
                </g>
            </g>
            <rect id="Rectangle-6" fill="#B8CFE8" x="231" y="305" width="78" height="123"></rect>
            <rect id="Rectangle-6" fill="#A6BCD4" x="238" y="312" width="64" height="116"></rect>
            <g id="bird" transform="translate(270.768928, 81.585221) rotate(-20.000000) translate(-270.768928, -81.585221) translate(222.268928, 40.085221)" fill="#DEEEFE" fill-rule="nonzero">
                <g id="Group" transform="translate(48.015980, 41.826967) scale(-1, 1) rotate(-180.000000) translate(-48.015980, -41.826967) translate(0.015980, 0.826967)">
                    <path d="M42.519389,81.0272657 C41.8740376,80.7465413 41.7747527,80.3126946 42.3208194,80.1085314 C42.519389,80.0319702 42.8172436,79.4960418 42.990992,78.9601134 C43.1399193,78.3986647 43.4129526,77.8372159 43.6115223,77.6840935 C44.0086616,77.3268079 44.058304,75.923186 43.6611647,75.923186 C43.5122374,75.923186 42.8172436,76.5867164 42.1222497,77.3778487 C38.9699561,80.9762249 38.8954924,81.0272657 37.5055047,81.0272657 C36.0658745,81.0272657 35.7431988,80.6699801 36.3140866,79.700205 C36.5126563,79.3684398 36.7608684,78.7814706 36.835332,78.3731443 C36.9346169,77.9392975 37.2572926,77.2502467 37.5551471,76.8419203 C37.8530016,76.4080736 38.2253198,75.6935024 38.374247,75.2596556 L38.6472803,74.4430029 L37.5055047,74.9534108 C36.8849744,75.2341352 36.1899806,75.6169412 35.9665897,75.8211044 C35.4205231,76.3315124 35.3460594,76.2804716 34.3780323,75.285176 C33.3603627,74.2643601 33.3355415,74.0601969 34.0057141,73.1925033 C34.2787474,72.8352178 34.5021383,72.3503302 34.5021383,72.1206466 C34.5021383,71.890963 34.9985625,70.6659839 35.643914,69.4410047 C36.2644442,68.1905052 36.711226,67.0165669 36.6367623,66.8379241 C36.3885503,66.1999141 35.2467746,66.4295977 30.2825327,68.1649848 C29.6620024,68.369148 28.3961207,68.751954 27.4280936,69.007158 C26.4848876,69.2878823 25.3679332,69.6196475 24.9459726,69.7727699 C23.6056273,70.2576575 21.7440366,70.8446267 20.1058367,71.3295142 C17.9712127,71.9675242 16.2833704,72.528973 14.7692766,73.1159421 C14.099104,73.3966665 13.1310768,73.7029113 12.6594738,73.7794725 C12.1878708,73.8815541 11.3935921,74.1622785 10.9219892,74.3919621 C10.4503862,74.6216457 9.5071802,74.9789312 8.81218633,75.1320536 C8.14201367,75.3106964 7.39737738,75.6169412 7.1988077,75.795584 C6.85131077,76.1018288 6.60309867,76.0763084 5.36203819,75.5659004 C3.52526868,74.8002885 3.40116263,74.6471661 3.64937472,73.6008297 C3.92240803,72.6055342 5.21311093,71.7123202 6.82648956,71.4315958 C7.37255617,71.3550346 8.29094093,71.0743102 8.86182875,70.8191063 C9.45753778,70.5639023 10.4503862,70.2576575 11.0957376,70.1555759 C12.4857254,69.9514127 13.2303616,69.6196475 13.031792,69.2623619 C12.7835799,68.879556 9.11004085,69.007158 7.04988045,69.4665251 C5.41168061,69.8238107 4.96489884,69.8493311 3.62455352,69.5430863 C2.8054536,69.3644435 1.66367795,69.13476 1.11761134,69.0581988 C0.0502993257,68.879556 -0.396482448,68.1394644 0.42261747,67.8332196 C0.670829567,67.7566584 1.09279013,67.4248932 1.36582344,67.1186485 C1.91189005,66.4806385 4.64222311,65.5619041 6.62791988,65.3067002 C8.34058335,65.102537 9.43271657,64.6942106 9.43271657,64.3114046 C9.43271657,63.8009966 8.76254391,63.6478742 5.65989271,63.5457926 C2.25938698,63.4437111 1.39064465,63.2140275 1.29135981,62.4228951 C1.24171739,62.0911299 1.29135981,61.7338443 1.41546586,61.6062423 C1.51475069,61.5041608 3.0784869,61.2234364 4.84079279,60.9937528 C8.34058335,60.559906 9.92914077,60.2026204 9.92914077,59.8708552 C9.92914077,59.4880493 9.13486206,59.2838861 7.12434408,59.1562841 C6.05703206,59.0797229 5.1386473,58.9010801 5.06418367,58.7989985 C4.98972005,58.6713965 5.36203819,58.1609885 5.85846238,57.6250602 C6.75202593,56.7318462 6.85131077,56.6808054 8.83700754,56.5787238 C11.4432346,56.4256014 11.616983,56.272479 11.2198437,54.2563675 C10.8227043,52.2912968 10.8227043,52.2147356 11.5673406,51.9340113 C11.9396587,51.7808889 12.5105466,51.4236033 12.8828647,51.1428789 C13.2303616,50.8621545 14.2480312,50.0710222 15.1167736,49.3819714 C15.9855159,48.6674002 16.7797946,48.1059515 16.8790795,48.1059515 C17.1024704,48.1059515 19.9320883,45.7835952 20.7760094,44.941422 C21.0986851,44.6096568 22.4390304,43.7674837 23.7545545,43.0784329 C27.2543451,41.2664846 29.2400419,39.2503731 32.8142961,33.8400486 C33.1369718,33.3806814 33.8319657,32.4619471 34.4028535,31.7984167 C34.9489201,31.1604068 36.1155169,29.705744 36.9842593,28.5828465 C37.8530016,27.459949 38.9451348,26.1328882 39.4167378,25.6224802 C40.5833347,24.3209399 42.9413496,21.0288085 42.9413496,20.6715229 C42.9413496,20.5184005 43.2143829,20.0079925 43.5618798,19.523105 C44.6788343,17.9663607 44.5547282,17.7366771 41.5265406,15.1846372 C39.9876257,13.8830969 39.913162,13.8575765 37.0835441,13.3726889 C35.4949867,13.1174849 33.0376869,12.8112401 31.622878,12.7346789 C30.1832478,12.6325973 28.9670086,12.4539545 28.8677237,12.3263525 C28.7932601,12.1732302 28.8429025,11.8159446 28.9918298,11.5352202 C29.3889691,10.7185674 29.7861085,8.44725195 29.7861085,7.14571162 C29.7861085,5.92073249 29.8605721,5.81865089 32.7398324,2.11819309 C34.4773171,-0.127601993 34.9985625,-0.229683588 36.9842593,1.14841794 C37.3317562,1.40362193 38.2253198,2.01611149 38.9699561,2.52651947 C39.7145923,3.03692744 40.6081559,3.64941701 40.9556528,3.8791006 C41.3031498,4.10878418 42.3456406,4.82335535 43.2640253,5.43584491 L44.9518676,6.58426285 L47.7566643,6.40562006 C49.2955793,6.30353847 50.9586003,6.12489568 51.4053821,5.99729368 C51.8769851,5.84417129 53.2421516,5.6655285 54.4335697,5.56344691 C56.4440876,5.41032451 56.6426573,5.46136531 57.1142603,5.94625289 C58.0822875,7.01810963 58.8269238,6.38009966 58.8269238,4.51711056 C58.8269238,3.31765182 59.1247783,3.01140704 60.7133357,2.60308066 C61.6813629,2.34787668 62.0288598,2.09267269 62.6742113,1.14841794 C63.0961718,0.510407973 63.6174172,-2.84217094e-14 63.7911657,-2.84217094e-14 C63.9897354,-2.84217094e-14 64.2627687,0.459367176 64.4116959,1.07185674 C64.9081201,3.11348864 66.198823,3.8280598 66.8938169,2.42443787 C67.1916714,1.8374687 67.4398835,1.65882591 68.0107713,1.65882591 C68.9043349,1.65882591 69.1773682,2.06715229 68.6561228,2.65412146 C68.4575531,2.88380505 68.1845198,3.49629462 68.085235,4.00670259 C67.9611289,4.51711056 67.5143472,5.33376332 67.0675654,5.84417129 C66.2981079,6.73738524 66.198823,6.76290564 64.535802,6.76290564 C63.120993,6.76290564 62.6990325,6.86498724 62.3018931,7.27331362 C60.9119054,8.70245594 62.1777871,9.23838431 67.4647047,9.4425475 C69.4504015,9.5446291 72.7516224,10.5144042 73.1239405,11.1268938 C73.1984042,11.2544958 73.421795,11.3565774 73.6451859,11.3565774 C74.0423253,11.3565774 74.9358888,11.8925058 78.2619309,14.0872601 C79.1803157,14.6742292 80.6695883,15.6950452 81.6127942,16.2820143 C82.531179,16.8945039 83.9211667,17.8387587 84.7402666,18.4002074 C85.5345454,18.9361358 86.4281089,19.5486254 86.7259634,19.7017478 C87.4954209,20.1866353 88.9598723,20.1100741 89.6052237,19.5741458 C90.1264691,19.140299 90.1512904,18.9871766 89.9527207,17.8387587 C89.7789722,16.8689835 89.8286146,16.3075347 90.1264691,15.36328 C90.7718206,13.4237297 90.9703903,13.3726889 92.0873447,14.6742292 C93.0057295,15.7716064 93.0553719,15.8992084 93.0801931,17.5580343 C93.0801931,19.2934214 93.303584,19.8548702 94.6191081,21.4371349 C94.9417838,21.8199408 95.0410687,22.5089916 95.0907111,24.3464603 L95.1403535,26.7453778 L93.9241142,28.1234793 C93.0553719,29.0932545 92.1121659,29.7823052 90.5980721,30.5479172 C88.7613026,31.4921719 88.215236,31.6452943 86.5273937,31.7218555 C85.3856181,31.7984167 83.474385,31.6452943 81.8858275,31.3900903 C77.3931886,30.6499988 76.0528433,31.0328048 75.4819554,33.3041202 C75.2833858,34.1718138 74.7373192,38.280598 74.1167889,44.0226877 C73.769292,47.1616967 73.9678617,46.6002479 70.8900317,52.5720212 C70.3687863,53.5417964 69.5496863,54.8178163 69.0532621,55.4047855 C68.556838,55.9917546 67.737738,57.038091 67.2661351,57.7016214 C66.7945321,58.3906721 66.2484655,59.1052433 66.074717,59.3349269 C65.8761473,59.5390901 64.6102656,61.2744772 63.2450991,63.1629867 C59.9935206,67.6290564 59.3481692,68.3946684 57.784433,69.5941271 C56.4440876,70.6404635 54.0612515,72.656575 53.3662577,73.3711461 C53.1428668,73.6008297 52.5223365,74.1112377 52.0010911,74.5195641 C50.6607458,75.54038 46.664531,78.934593 44.877404,80.5934189 C44.058304,81.3079901 43.462595,81.4100717 42.519389,81.0272657 Z" id="Shape"></path>
                </g>
            </g>
        </g>
    </g>
</svg>