<?xml version="1.0" encoding="UTF-8"?>
<svg width="870px" height="830px" viewBox="0 0 870 830" version="1.1" xmlns="http://www.w3.org/2000/svg" xmlns:xlink="http://www.w3.org/1999/xlink">
    <!-- Generator: Sketch 50.2 (55047) - http://www.bohemiancoding.com/sketch -->
    <title>Revenue</title>
    <desc>Created with Sketch.</desc>
    <defs></defs>
    <g id="Page-1" stroke="none" stroke-width="1" fill="none" fill-rule="evenodd">
        <g id="Revenue">
            <g id="DMG-Bill" transform="translate(434.825539, 409.064861) rotate(-40.000000) translate(-434.825539, -409.064861) translate(30.825539, 214.064861)">
                <rect id="Rectangle-11" fill="#D1E1F1" x="0" y="0" width="808" height="390"></rect>
                <g id="Group" transform="translate(386.661864, 222.203662) scale(-1, 1) rotate(-180.000000) translate(-386.661864, -222.203662) translate(312.161864, 158.703662)"></g>
                <g id="bird" transform="translate(757.834861, 46.145335) rotate(-20.000000) translate(-757.834861, -46.145335) translate(726.334861, 19.145335)" fill="#8795A4" fill-rule="nonzero">
                    <g id="Group" transform="translate(31.006294, 27.326245) scale(-1, 1) rotate(-180.000000) translate(-31.006294, -27.326245) translate(0.006294, 0.826245)">
                        <path d="M27.6360337,52.6647325 C27.2165791,52.482272 27.1520476,52.2002876 27.5069708,52.0675891 C27.6360337,52.0178271 27.8296282,51.6694935 27.9425583,51.3211598 C28.0393555,50.9562388 28.2168171,50.5913178 28.34588,50.4917939 C28.604006,50.2595715 28.6362717,49.347269 28.3781458,49.347269 C28.2813485,49.347269 27.8296282,49.7785393 27.3779078,50.2927461 C25.3290333,52.6315579 25.2806347,52.6647325 24.3771939,52.6647325 C23.4414875,52.6647325 23.2317602,52.43251 23.6028162,51.802192 C23.7318791,51.5865569 23.8932078,51.2050486 23.9416064,50.9396515 C24.0061379,50.6576671 24.2158652,50.2098095 24.4094597,49.9444125 C24.6030541,49.6624281 24.8450472,49.1979832 24.9418444,48.9159988 L25.119306,48.3852046 L24.3771939,48.716951 C23.9738722,48.8994115 23.5221518,49.1482212 23.376956,49.2809198 C23.0220328,49.6126661 22.9736342,49.5794915 22.3444523,48.9325861 C21.6830046,48.2690934 21.6668717,48.1363949 22.1024592,47.5724261 C22.2799208,47.3402036 22.4251166,47.0250446 22.4251166,46.8757587 C22.4251166,46.7264729 22.747774,45.9302817 23.1672287,45.1340904 C23.5705504,44.3213119 23.8609421,43.5582953 23.8125435,43.4421841 C23.6512148,43.0275011 22.9091027,43.176787 19.6825287,44.3047246 C19.2792069,44.4374231 18.4564306,44.6862329 17.8272486,44.852106 C17.2141995,45.0345665 16.4882204,45.2502016 16.2139616,45.3497256 C15.3427866,45.6648846 14.1328213,46.0463929 13.0680519,46.3615519 C11.680625,46.7762348 10.5835899,47.1411558 9.59948478,47.5226641 C9.16389728,47.7051246 8.53471534,47.9041724 8.2281908,47.9539344 C7.92166627,48.0202836 7.40541442,48.2027441 7.09888988,48.35203 C6.79236535,48.5013158 6.17931628,48.7335383 5.72759591,48.8330622 C5.29200841,48.9491734 4.80802231,49.1482212 4.67895934,49.2643324 C4.45309916,49.4633802 4.29177046,49.4467929 3.48512694,49.1150466 C2.29129454,48.6174271 2.21063019,48.5179032 2.37195889,47.8378232 C2.54942047,47.1909178 3.38832972,46.6103617 4.43696629,46.4279012 C4.79188944,46.3781392 5.38880564,46.1956787 5.75986165,46.0298056 C6.14705054,45.8639324 6.79236535,45.6648846 7.21181998,45.5985353 C8.11526071,45.4658368 8.59924682,45.2502016 8.47018386,45.0179792 C8.30885515,44.7691694 5.92119035,44.852106 4.58216212,45.1506777 C3.51739268,45.3829002 3.22700102,45.3994875 2.35582602,45.2004397 C1.82344131,45.0843285 1.08132927,44.9350426 0.726406127,44.8852807 C0.0326927054,44.7691694 -0.257698959,44.2881372 0.274685759,44.0890894 C0.436014462,44.0393275 0.710273257,43.8236924 0.88773483,43.6246446 C1.24265798,43.2099616 3.01727371,42.6128182 4.30790333,42.446945 C5.42107138,42.3142465 6.13091767,42.0488494 6.13091767,41.8000396 C6.13091767,41.4682933 5.69533017,41.3687694 3.67872139,41.3024201 C1.46851816,41.2360709 0.9038677,41.086785 0.839336219,40.5725782 C0.807070478,40.356943 0.839336219,40.1247206 0.92000057,40.041784 C0.984532051,39.9754347 2.00090288,39.7929743 3.14633667,39.6436884 C5.42107138,39.361704 6.45357507,39.1294816 6.45357507,38.9138464 C6.45357507,38.6650367 5.93732322,38.5323381 4.63056073,38.4494015 C3.93684731,38.3996396 3.33993111,38.2835284 3.2915325,38.2171791 C3.24313389,38.1342425 3.48512694,37.8024962 3.80778435,37.4541625 C4.38856768,36.8736064 4.45309916,36.8404318 5.74372878,36.7740825 C7.43768016,36.6745586 7.55061025,36.5750347 7.29248433,35.2646366 C7.0343584,33.9874132 7.0343584,33.9376512 7.51834451,33.7551907 C7.76033756,33.6556668 8.13139358,33.4234444 8.37338664,33.2409839 C8.59924682,33.0585234 9.2606945,32.5443166 9.82534496,32.096459 C10.3899954,31.6320141 10.9062473,31.2670931 10.9707787,31.2670931 C11.1159746,31.2670931 12.9551218,29.7576473 13.5036394,29.2102658 C13.7133667,28.9946307 14.5845417,28.4472492 15.4395838,27.9993916 C17.7143185,26.8216921 19.0049481,25.511294 21.3280815,21.9947828 C21.5378088,21.6962111 21.9895291,21.0990676 22.3605852,20.6677974 C22.7155083,20.2531144 23.4737532,19.3076374 24.0384037,18.5777954 C24.6030541,17.8479534 25.3129004,16.9854129 25.619425,16.6536666 C26.3776699,15.8077134 27.9102925,13.6679495 27.9102925,13.435727 C27.9102925,13.3362031 28.0877541,13.0044568 28.3136143,12.6892978 C29.0395935,11.6774714 28.9589291,11.5281855 26.9907189,9.86945381 C25.990481,9.02350062 25.9420824,9.0069133 24.1029351,8.69175428 C23.0704315,8.5258811 21.4732773,8.32683329 20.5537037,8.27707134 C19.6179972,8.21072207 18.8274866,8.09461085 18.7629551,8.01167427 C18.7145565,7.91215036 18.7468222,7.67992792 18.8436194,7.49746743 C19.1017454,6.96667327 19.3598713,5.49040203 19.3598713,4.64444885 C19.3598713,3.84825762 19.4082699,3.78190835 21.2796829,1.37674734 C22.4089838,-0.0829365866 22.747774,-0.149285856 24.0384037,0.746429279 C24.2642639,0.912302453 24.8450472,1.31039807 25.3290333,1.64214441 C25.8130194,1.97389076 26.3938027,2.37198638 26.6196629,2.52127223 C26.8455231,2.67055809 27.5231036,3.13500297 28.1200198,3.53309859 L29.217055,4.27952787 L31.0400694,4.16341665 C32.0403073,4.09706738 33.1212096,3.98095616 33.4116013,3.89801957 C33.7181258,3.79849567 34.6054337,3.68238445 35.3798115,3.61603518 C36.686574,3.51651127 36.8156369,3.54968591 37.1221615,3.86484494 C37.7513434,4.56151226 38.2353295,4.14682933 38.2353295,2.93595517 C38.2353295,2.15635125 38.4289239,1.95730344 39.4614276,1.69190637 C40.0906096,1.52603319 40.3164698,1.36016002 40.7359244,0.746429279 C41.0101832,0.331746346 41.3489735,0 41.4619036,0 C41.5909665,0 41.7684281,0.298571712 41.8652253,0.696667327 C42.1878827,2.02365271 43.026792,2.4880976 43.4785123,1.57579515 C43.6721068,1.19428685 43.8334355,1.07817563 44.2044915,1.07817563 C44.7852748,1.07817563 44.9627364,1.3435727 44.6239461,1.725081 C44.4948832,1.87436686 44.3174216,2.27246247 44.2528901,2.60420882 C44.1722258,2.93595517 43.8818341,3.46674932 43.5914424,3.79849567 C43.0913235,4.37905177 43.026792,4.39563909 41.9458897,4.39563909 C41.0263161,4.39563909 40.7520573,4.46198836 40.4939313,4.72738544 C39.5904906,5.65627521 40.413267,6.00460887 43.8495684,6.13730741 C45.140198,6.20365668 47.2858697,6.83397474 47.5278628,7.23207035 C47.5762614,7.31500694 47.7214572,7.38135621 47.8666531,7.38135621 C48.124779,7.38135621 48.7055623,7.72968987 50.8673669,9.15619916 C51.4642831,9.53770746 52.4322553,10.2012002 53.0453044,10.5827085 C53.6422206,10.9808041 54.5456613,11.5945348 55.0780461,11.9594558 C55.5942979,12.3077895 56.1750812,12.7058851 56.3686757,12.805409 C56.8687947,13.120568 57.820634,13.070806 58.2400886,12.7224724 C58.5788789,12.440488 58.5950118,12.3409641 58.4659488,11.5945348 C58.3530187,10.9642167 58.3852845,10.5992958 58.5788789,9.98556503 C58.9983335,8.72492891 59.1273965,8.69175428 59.8533757,9.53770746 C60.4502919,10.2509621 60.4825576,10.3338987 60.4986905,11.4120743 C60.4986905,12.5400119 60.6438863,12.9049329 61.4989284,13.9333465 C61.7086557,14.1821563 61.7731872,14.6300139 61.805453,15.8243007 L61.8377187,17.3835086 L61.0472081,18.2792237 C60.4825576,18.9095417 59.8695085,19.3573993 58.8854035,19.8550188 C57.6915711,20.4687496 57.3366479,20.5682735 56.2396127,20.6180354 C55.4975007,20.6677974 54.2552697,20.5682735 53.222766,20.4024003 C50.3027165,19.9213681 49.4315415,20.1701779 49.0604855,21.6464491 C48.9314225,22.2104179 48.5764993,24.880976 48.1731776,28.6131224 C47.9473174,30.6533624 48.0763804,30.2884414 46.0759045,34.1698737 C45.7371142,34.8001917 45.2047295,35.6295576 44.8820721,36.0110659 C44.5594147,36.3925742 44.0270299,37.0726542 43.7205054,37.5039245 C43.4139809,37.951782 43.0590577,38.4162269 42.9461276,38.5655128 C42.8170647,38.6982113 41.9942883,39.8261489 41.1069804,41.0536104 C38.9935744,43.9563909 38.5741198,44.4540104 37.557749,45.2336143 C36.686574,45.9136943 35.1378184,47.2240924 34.686098,47.6885373 C34.5409022,47.8378232 34.1375805,48.1695695 33.7987902,48.4349666 C32.9276152,49.0984593 30.3302231,51.3045725 29.1686564,52.3827481 C28.6362717,52.847193 28.2490828,52.9135423 27.6360337,52.6647325 Z" id="Shape"></path>
                    </g>
                </g>
                <g id="bird" transform="translate(57.834861, 46.145335) rotate(-20.000000) translate(-57.834861, -46.145335) translate(26.334861, 19.145335)" fill="#8795A4" fill-rule="nonzero">
                    <g id="Group" transform="translate(31.006294, 27.326245) scale(-1, 1) rotate(-180.000000) translate(-31.006294, -27.326245) translate(0.006294, 0.826245)">
                        <path d="M27.6360337,52.6647325 C27.2165791,52.482272 27.1520476,52.2002876 27.5069708,52.0675891 C27.6360337,52.0178271 27.8296282,51.6694935 27.9425583,51.3211598 C28.0393555,50.9562388 28.2168171,50.5913178 28.34588,50.4917939 C28.604006,50.2595715 28.6362717,49.347269 28.3781458,49.347269 C28.2813485,49.347269 27.8296282,49.7785393 27.3779078,50.2927461 C25.3290333,52.6315579 25.2806347,52.6647325 24.3771939,52.6647325 C23.4414875,52.6647325 23.2317602,52.43251 23.6028162,51.802192 C23.7318791,51.5865569 23.8932078,51.2050486 23.9416064,50.9396515 C24.0061379,50.6576671 24.2158652,50.2098095 24.4094597,49.9444125 C24.6030541,49.6624281 24.8450472,49.1979832 24.9418444,48.9159988 L25.119306,48.3852046 L24.3771939,48.716951 C23.9738722,48.8994115 23.5221518,49.1482212 23.376956,49.2809198 C23.0220328,49.6126661 22.9736342,49.5794915 22.3444523,48.9325861 C21.6830046,48.2690934 21.6668717,48.1363949 22.1024592,47.5724261 C22.2799208,47.3402036 22.4251166,47.0250446 22.4251166,46.8757587 C22.4251166,46.7264729 22.747774,45.9302817 23.1672287,45.1340904 C23.5705504,44.3213119 23.8609421,43.5582953 23.8125435,43.4421841 C23.6512148,43.0275011 22.9091027,43.176787 19.6825287,44.3047246 C19.2792069,44.4374231 18.4564306,44.6862329 17.8272486,44.852106 C17.2141995,45.0345665 16.4882204,45.2502016 16.2139616,45.3497256 C15.3427866,45.6648846 14.1328213,46.0463929 13.0680519,46.3615519 C11.680625,46.7762348 10.5835899,47.1411558 9.59948478,47.5226641 C9.16389728,47.7051246 8.53471534,47.9041724 8.2281908,47.9539344 C7.92166627,48.0202836 7.40541442,48.2027441 7.09888988,48.35203 C6.79236535,48.5013158 6.17931628,48.7335383 5.72759591,48.8330622 C5.29200841,48.9491734 4.80802231,49.1482212 4.67895934,49.2643324 C4.45309916,49.4633802 4.29177046,49.4467929 3.48512694,49.1150466 C2.29129454,48.6174271 2.21063019,48.5179032 2.37195889,47.8378232 C2.54942047,47.1909178 3.38832972,46.6103617 4.43696629,46.4279012 C4.79188944,46.3781392 5.38880564,46.1956787 5.75986165,46.0298056 C6.14705054,45.8639324 6.79236535,45.6648846 7.21181998,45.5985353 C8.11526071,45.4658368 8.59924682,45.2502016 8.47018386,45.0179792 C8.30885515,44.7691694 5.92119035,44.852106 4.58216212,45.1506777 C3.51739268,45.3829002 3.22700102,45.3994875 2.35582602,45.2004397 C1.82344131,45.0843285 1.08132927,44.9350426 0.726406127,44.8852807 C0.0326927054,44.7691694 -0.257698959,44.2881372 0.274685759,44.0890894 C0.436014462,44.0393275 0.710273257,43.8236924 0.88773483,43.6246446 C1.24265798,43.2099616 3.01727371,42.6128182 4.30790333,42.446945 C5.42107138,42.3142465 6.13091767,42.0488494 6.13091767,41.8000396 C6.13091767,41.4682933 5.69533017,41.3687694 3.67872139,41.3024201 C1.46851816,41.2360709 0.9038677,41.086785 0.839336219,40.5725782 C0.807070478,40.356943 0.839336219,40.1247206 0.92000057,40.041784 C0.984532051,39.9754347 2.00090288,39.7929743 3.14633667,39.6436884 C5.42107138,39.361704 6.45357507,39.1294816 6.45357507,38.9138464 C6.45357507,38.6650367 5.93732322,38.5323381 4.63056073,38.4494015 C3.93684731,38.3996396 3.33993111,38.2835284 3.2915325,38.2171791 C3.24313389,38.1342425 3.48512694,37.8024962 3.80778435,37.4541625 C4.38856768,36.8736064 4.45309916,36.8404318 5.74372878,36.7740825 C7.43768016,36.6745586 7.55061025,36.5750347 7.29248433,35.2646366 C7.0343584,33.9874132 7.0343584,33.9376512 7.51834451,33.7551907 C7.76033756,33.6556668 8.13139358,33.4234444 8.37338664,33.2409839 C8.59924682,33.0585234 9.2606945,32.5443166 9.82534496,32.096459 C10.3899954,31.6320141 10.9062473,31.2670931 10.9707787,31.2670931 C11.1159746,31.2670931 12.9551218,29.7576473 13.5036394,29.2102658 C13.7133667,28.9946307 14.5845417,28.4472492 15.4395838,27.9993916 C17.7143185,26.8216921 19.0049481,25.511294 21.3280815,21.9947828 C21.5378088,21.6962111 21.9895291,21.0990676 22.3605852,20.6677974 C22.7155083,20.2531144 23.4737532,19.3076374 24.0384037,18.5777954 C24.6030541,17.8479534 25.3129004,16.9854129 25.619425,16.6536666 C26.3776699,15.8077134 27.9102925,13.6679495 27.9102925,13.435727 C27.9102925,13.3362031 28.0877541,13.0044568 28.3136143,12.6892978 C29.0395935,11.6774714 28.9589291,11.5281855 26.9907189,9.86945381 C25.990481,9.02350062 25.9420824,9.0069133 24.1029351,8.69175428 C23.0704315,8.5258811 21.4732773,8.32683329 20.5537037,8.27707134 C19.6179972,8.21072207 18.8274866,8.09461085 18.7629551,8.01167427 C18.7145565,7.91215036 18.7468222,7.67992792 18.8436194,7.49746743 C19.1017454,6.96667327 19.3598713,5.49040203 19.3598713,4.64444885 C19.3598713,3.84825762 19.4082699,3.78190835 21.2796829,1.37674734 C22.4089838,-0.0829365866 22.747774,-0.149285856 24.0384037,0.746429279 C24.2642639,0.912302453 24.8450472,1.31039807 25.3290333,1.64214441 C25.8130194,1.97389076 26.3938027,2.37198638 26.6196629,2.52127223 C26.8455231,2.67055809 27.5231036,3.13500297 28.1200198,3.53309859 L29.217055,4.27952787 L31.0400694,4.16341665 C32.0403073,4.09706738 33.1212096,3.98095616 33.4116013,3.89801957 C33.7181258,3.79849567 34.6054337,3.68238445 35.3798115,3.61603518 C36.686574,3.51651127 36.8156369,3.54968591 37.1221615,3.86484494 C37.7513434,4.56151226 38.2353295,4.14682933 38.2353295,2.93595517 C38.2353295,2.15635125 38.4289239,1.95730344 39.4614276,1.69190637 C40.0906096,1.52603319 40.3164698,1.36016002 40.7359244,0.746429279 C41.0101832,0.331746346 41.3489735,0 41.4619036,0 C41.5909665,0 41.7684281,0.298571712 41.8652253,0.696667327 C42.1878827,2.02365271 43.026792,2.4880976 43.4785123,1.57579515 C43.6721068,1.19428685 43.8334355,1.07817563 44.2044915,1.07817563 C44.7852748,1.07817563 44.9627364,1.3435727 44.6239461,1.725081 C44.4948832,1.87436686 44.3174216,2.27246247 44.2528901,2.60420882 C44.1722258,2.93595517 43.8818341,3.46674932 43.5914424,3.79849567 C43.0913235,4.37905177 43.026792,4.39563909 41.9458897,4.39563909 C41.0263161,4.39563909 40.7520573,4.46198836 40.4939313,4.72738544 C39.5904906,5.65627521 40.413267,6.00460887 43.8495684,6.13730741 C45.140198,6.20365668 47.2858697,6.83397474 47.5278628,7.23207035 C47.5762614,7.31500694 47.7214572,7.38135621 47.8666531,7.38135621 C48.124779,7.38135621 48.7055623,7.72968987 50.8673669,9.15619916 C51.4642831,9.53770746 52.4322553,10.2012002 53.0453044,10.5827085 C53.6422206,10.9808041 54.5456613,11.5945348 55.0780461,11.9594558 C55.5942979,12.3077895 56.1750812,12.7058851 56.3686757,12.805409 C56.8687947,13.120568 57.820634,13.070806 58.2400886,12.7224724 C58.5788789,12.440488 58.5950118,12.3409641 58.4659488,11.5945348 C58.3530187,10.9642167 58.3852845,10.5992958 58.5788789,9.98556503 C58.9983335,8.72492891 59.1273965,8.69175428 59.8533757,9.53770746 C60.4502919,10.2509621 60.4825576,10.3338987 60.4986905,11.4120743 C60.4986905,12.5400119 60.6438863,12.9049329 61.4989284,13.9333465 C61.7086557,14.1821563 61.7731872,14.6300139 61.805453,15.8243007 L61.8377187,17.3835086 L61.0472081,18.2792237 C60.4825576,18.9095417 59.8695085,19.3573993 58.8854035,19.8550188 C57.6915711,20.4687496 57.3366479,20.5682735 56.2396127,20.6180354 C55.4975007,20.6677974 54.2552697,20.5682735 53.222766,20.4024003 C50.3027165,19.9213681 49.4315415,20.1701779 49.0604855,21.6464491 C48.9314225,22.2104179 48.5764993,24.880976 48.1731776,28.6131224 C47.9473174,30.6533624 48.0763804,30.2884414 46.0759045,34.1698737 C45.7371142,34.8001917 45.2047295,35.6295576 44.8820721,36.0110659 C44.5594147,36.3925742 44.0270299,37.0726542 43.7205054,37.5039245 C43.4139809,37.951782 43.0590577,38.4162269 42.9461276,38.5655128 C42.8170647,38.6982113 41.9942883,39.8261489 41.1069804,41.0536104 C38.9935744,43.9563909 38.5741198,44.4540104 37.557749,45.2336143 C36.686574,45.9136943 35.1378184,47.2240924 34.686098,47.6885373 C34.5409022,47.8378232 34.1375805,48.1695695 33.7987902,48.4349666 C32.9276152,49.0984593 30.3302231,51.3045725 29.1686564,52.3827481 C28.6362717,52.847193 28.2490828,52.9135423 27.6360337,52.6647325 Z" id="Shape"></path>
                    </g>
                </g>
                <g id="bird" transform="translate(757.834861, 346.145335) rotate(-20.000000) translate(-757.834861, -346.145335) translate(726.334861, 319.145335)" fill="#8795A4" fill-rule="nonzero">
                    <g id="Group" transform="translate(31.006294, 27.326245) scale(-1, 1) rotate(-180.000000) translate(-31.006294, -27.326245) translate(0.006294, 0.826245)">
                        <path d="M27.6360337,52.6647325 C27.2165791,52.482272 27.1520476,52.2002876 27.5069708,52.0675891 C27.6360337,52.0178271 27.8296282,51.6694935 27.9425583,51.3211598 C28.0393555,50.9562388 28.2168171,50.5913178 28.34588,50.4917939 C28.604006,50.2595715 28.6362717,49.347269 28.3781458,49.347269 C28.2813485,49.347269 27.8296282,49.7785393 27.3779078,50.2927461 C25.3290333,52.6315579 25.2806347,52.6647325 24.3771939,52.6647325 C23.4414875,52.6647325 23.2317602,52.43251 23.6028162,51.802192 C23.7318791,51.5865569 23.8932078,51.2050486 23.9416064,50.9396515 C24.0061379,50.6576671 24.2158652,50.2098095 24.4094597,49.9444125 C24.6030541,49.6624281 24.8450472,49.1979832 24.9418444,48.9159988 L25.119306,48.3852046 L24.3771939,48.716951 C23.9738722,48.8994115 23.5221518,49.1482212 23.376956,49.2809198 C23.0220328,49.6126661 22.9736342,49.5794915 22.3444523,48.9325861 C21.6830046,48.2690934 21.6668717,48.1363949 22.1024592,47.5724261 C22.2799208,47.3402036 22.4251166,47.0250446 22.4251166,46.8757587 C22.4251166,46.7264729 22.747774,45.9302817 23.1672287,45.1340904 C23.5705504,44.3213119 23.8609421,43.5582953 23.8125435,43.4421841 C23.6512148,43.0275011 22.9091027,43.176787 19.6825287,44.3047246 C19.2792069,44.4374231 18.4564306,44.6862329 17.8272486,44.852106 C17.2141995,45.0345665 16.4882204,45.2502016 16.2139616,45.3497256 C15.3427866,45.6648846 14.1328213,46.0463929 13.0680519,46.3615519 C11.680625,46.7762348 10.5835899,47.1411558 9.59948478,47.5226641 C9.16389728,47.7051246 8.53471534,47.9041724 8.2281908,47.9539344 C7.92166627,48.0202836 7.40541442,48.2027441 7.09888988,48.35203 C6.79236535,48.5013158 6.17931628,48.7335383 5.72759591,48.8330622 C5.29200841,48.9491734 4.80802231,49.1482212 4.67895934,49.2643324 C4.45309916,49.4633802 4.29177046,49.4467929 3.48512694,49.1150466 C2.29129454,48.6174271 2.21063019,48.5179032 2.37195889,47.8378232 C2.54942047,47.1909178 3.38832972,46.6103617 4.43696629,46.4279012 C4.79188944,46.3781392 5.38880564,46.1956787 5.75986165,46.0298056 C6.14705054,45.8639324 6.79236535,45.6648846 7.21181998,45.5985353 C8.11526071,45.4658368 8.59924682,45.2502016 8.47018386,45.0179792 C8.30885515,44.7691694 5.92119035,44.852106 4.58216212,45.1506777 C3.51739268,45.3829002 3.22700102,45.3994875 2.35582602,45.2004397 C1.82344131,45.0843285 1.08132927,44.9350426 0.726406127,44.8852807 C0.0326927054,44.7691694 -0.257698959,44.2881372 0.274685759,44.0890894 C0.436014462,44.0393275 0.710273257,43.8236924 0.88773483,43.6246446 C1.24265798,43.2099616 3.01727371,42.6128182 4.30790333,42.446945 C5.42107138,42.3142465 6.13091767,42.0488494 6.13091767,41.8000396 C6.13091767,41.4682933 5.69533017,41.3687694 3.67872139,41.3024201 C1.46851816,41.2360709 0.9038677,41.086785 0.839336219,40.5725782 C0.807070478,40.356943 0.839336219,40.1247206 0.92000057,40.041784 C0.984532051,39.9754347 2.00090288,39.7929743 3.14633667,39.6436884 C5.42107138,39.361704 6.45357507,39.1294816 6.45357507,38.9138464 C6.45357507,38.6650367 5.93732322,38.5323381 4.63056073,38.4494015 C3.93684731,38.3996396 3.33993111,38.2835284 3.2915325,38.2171791 C3.24313389,38.1342425 3.48512694,37.8024962 3.80778435,37.4541625 C4.38856768,36.8736064 4.45309916,36.8404318 5.74372878,36.7740825 C7.43768016,36.6745586 7.55061025,36.5750347 7.29248433,35.2646366 C7.0343584,33.9874132 7.0343584,33.9376512 7.51834451,33.7551907 C7.76033756,33.6556668 8.13139358,33.4234444 8.37338664,33.2409839 C8.59924682,33.0585234 9.2606945,32.5443166 9.82534496,32.096459 C10.3899954,31.6320141 10.9062473,31.2670931 10.9707787,31.2670931 C11.1159746,31.2670931 12.9551218,29.7576473 13.5036394,29.2102658 C13.7133667,28.9946307 14.5845417,28.4472492 15.4395838,27.9993916 C17.7143185,26.8216921 19.0049481,25.511294 21.3280815,21.9947828 C21.5378088,21.6962111 21.9895291,21.0990676 22.3605852,20.6677974 C22.7155083,20.2531144 23.4737532,19.3076374 24.0384037,18.5777954 C24.6030541,17.8479534 25.3129004,16.9854129 25.619425,16.6536666 C26.3776699,15.8077134 27.9102925,13.6679495 27.9102925,13.435727 C27.9102925,13.3362031 28.0877541,13.0044568 28.3136143,12.6892978 C29.0395935,11.6774714 28.9589291,11.5281855 26.9907189,9.86945381 C25.990481,9.02350062 25.9420824,9.0069133 24.1029351,8.69175428 C23.0704315,8.5258811 21.4732773,8.32683329 20.5537037,8.27707134 C19.6179972,8.21072207 18.8274866,8.09461085 18.7629551,8.01167427 C18.7145565,7.91215036 18.7468222,7.67992792 18.8436194,7.49746743 C19.1017454,6.96667327 19.3598713,5.49040203 19.3598713,4.64444885 C19.3598713,3.84825762 19.4082699,3.78190835 21.2796829,1.37674734 C22.4089838,-0.0829365866 22.747774,-0.149285856 24.0384037,0.746429279 C24.2642639,0.912302453 24.8450472,1.31039807 25.3290333,1.64214441 C25.8130194,1.97389076 26.3938027,2.37198638 26.6196629,2.52127223 C26.8455231,2.67055809 27.5231036,3.13500297 28.1200198,3.53309859 L29.217055,4.27952787 L31.0400694,4.16341665 C32.0403073,4.09706738 33.1212096,3.98095616 33.4116013,3.89801957 C33.7181258,3.79849567 34.6054337,3.68238445 35.3798115,3.61603518 C36.686574,3.51651127 36.8156369,3.54968591 37.1221615,3.86484494 C37.7513434,4.56151226 38.2353295,4.14682933 38.2353295,2.93595517 C38.2353295,2.15635125 38.4289239,1.95730344 39.4614276,1.69190637 C40.0906096,1.52603319 40.3164698,1.36016002 40.7359244,0.746429279 C41.0101832,0.331746346 41.3489735,0 41.4619036,0 C41.5909665,0 41.7684281,0.298571712 41.8652253,0.696667327 C42.1878827,2.02365271 43.026792,2.4880976 43.4785123,1.57579515 C43.6721068,1.19428685 43.8334355,1.07817563 44.2044915,1.07817563 C44.7852748,1.07817563 44.9627364,1.3435727 44.6239461,1.725081 C44.4948832,1.87436686 44.3174216,2.27246247 44.2528901,2.60420882 C44.1722258,2.93595517 43.8818341,3.46674932 43.5914424,3.79849567 C43.0913235,4.37905177 43.026792,4.39563909 41.9458897,4.39563909 C41.0263161,4.39563909 40.7520573,4.46198836 40.4939313,4.72738544 C39.5904906,5.65627521 40.413267,6.00460887 43.8495684,6.13730741 C45.140198,6.20365668 47.2858697,6.83397474 47.5278628,7.23207035 C47.5762614,7.31500694 47.7214572,7.38135621 47.8666531,7.38135621 C48.124779,7.38135621 48.7055623,7.72968987 50.8673669,9.15619916 C51.4642831,9.53770746 52.4322553,10.2012002 53.0453044,10.5827085 C53.6422206,10.9808041 54.5456613,11.5945348 55.0780461,11.9594558 C55.5942979,12.3077895 56.1750812,12.7058851 56.3686757,12.805409 C56.8687947,13.120568 57.820634,13.070806 58.2400886,12.7224724 C58.5788789,12.440488 58.5950118,12.3409641 58.4659488,11.5945348 C58.3530187,10.9642167 58.3852845,10.5992958 58.5788789,9.98556503 C58.9983335,8.72492891 59.1273965,8.69175428 59.8533757,9.53770746 C60.4502919,10.2509621 60.4825576,10.3338987 60.4986905,11.4120743 C60.4986905,12.5400119 60.6438863,12.9049329 61.4989284,13.9333465 C61.7086557,14.1821563 61.7731872,14.6300139 61.805453,15.8243007 L61.8377187,17.3835086 L61.0472081,18.2792237 C60.4825576,18.9095417 59.8695085,19.3573993 58.8854035,19.8550188 C57.6915711,20.4687496 57.3366479,20.5682735 56.2396127,20.6180354 C55.4975007,20.6677974 54.2552697,20.5682735 53.222766,20.4024003 C50.3027165,19.9213681 49.4315415,20.1701779 49.0604855,21.6464491 C48.9314225,22.2104179 48.5764993,24.880976 48.1731776,28.6131224 C47.9473174,30.6533624 48.0763804,30.2884414 46.0759045,34.1698737 C45.7371142,34.8001917 45.2047295,35.6295576 44.8820721,36.0110659 C44.5594147,36.3925742 44.0270299,37.0726542 43.7205054,37.5039245 C43.4139809,37.951782 43.0590577,38.4162269 42.9461276,38.5655128 C42.8170647,38.6982113 41.9942883,39.8261489 41.1069804,41.0536104 C38.9935744,43.9563909 38.5741198,44.4540104 37.557749,45.2336143 C36.686574,45.9136943 35.1378184,47.2240924 34.686098,47.6885373 C34.5409022,47.8378232 34.1375805,48.1695695 33.7987902,48.4349666 C32.9276152,49.0984593 30.3302231,51.3045725 29.1686564,52.3827481 C28.6362717,52.847193 28.2490828,52.9135423 27.6360337,52.6647325 Z" id="Shape"></path>
                    </g>
                </g>
                <g id="bird" transform="translate(57.834861, 346.145335) rotate(-20.000000) translate(-57.834861, -346.145335) translate(26.334861, 319.145335)" fill="#8795A4" fill-rule="nonzero">
                    <g id="Group" transform="translate(31.006294, 27.326245) scale(-1, 1) rotate(-180.000000) translate(-31.006294, -27.326245) translate(0.006294, 0.826245)">
                        <path d="M27.6360337,52.6647325 C27.2165791,52.482272 27.1520476,52.2002876 27.5069708,52.0675891 C27.6360337,52.0178271 27.8296282,51.6694935 27.9425583,51.3211598 C28.0393555,50.9562388 28.2168171,50.5913178 28.34588,50.4917939 C28.604006,50.2595715 28.6362717,49.347269 28.3781458,49.347269 C28.2813485,49.347269 27.8296282,49.7785393 27.3779078,50.2927461 C25.3290333,52.6315579 25.2806347,52.6647325 24.3771939,52.6647325 C23.4414875,52.6647325 23.2317602,52.43251 23.6028162,51.802192 C23.7318791,51.5865569 23.8932078,51.2050486 23.9416064,50.9396515 C24.0061379,50.6576671 24.2158652,50.2098095 24.4094597,49.9444125 C24.6030541,49.6624281 24.8450472,49.1979832 24.9418444,48.9159988 L25.119306,48.3852046 L24.3771939,48.716951 C23.9738722,48.8994115 23.5221518,49.1482212 23.376956,49.2809198 C23.0220328,49.6126661 22.9736342,49.5794915 22.3444523,48.9325861 C21.6830046,48.2690934 21.6668717,48.1363949 22.1024592,47.5724261 C22.2799208,47.3402036 22.4251166,47.0250446 22.4251166,46.8757587 C22.4251166,46.7264729 22.747774,45.9302817 23.1672287,45.1340904 C23.5705504,44.3213119 23.8609421,43.5582953 23.8125435,43.4421841 C23.6512148,43.0275011 22.9091027,43.176787 19.6825287,44.3047246 C19.2792069,44.4374231 18.4564306,44.6862329 17.8272486,44.852106 C17.2141995,45.0345665 16.4882204,45.2502016 16.2139616,45.3497256 C15.3427866,45.6648846 14.1328213,46.0463929 13.0680519,46.3615519 C11.680625,46.7762348 10.5835899,47.1411558 9.59948478,47.5226641 C9.16389728,47.7051246 8.53471534,47.9041724 8.2281908,47.9539344 C7.92166627,48.0202836 7.40541442,48.2027441 7.09888988,48.35203 C6.79236535,48.5013158 6.17931628,48.7335383 5.72759591,48.8330622 C5.29200841,48.9491734 4.80802231,49.1482212 4.67895934,49.2643324 C4.45309916,49.4633802 4.29177046,49.4467929 3.48512694,49.1150466 C2.29129454,48.6174271 2.21063019,48.5179032 2.37195889,47.8378232 C2.54942047,47.1909178 3.38832972,46.6103617 4.43696629,46.4279012 C4.79188944,46.3781392 5.38880564,46.1956787 5.75986165,46.0298056 C6.14705054,45.8639324 6.79236535,45.6648846 7.21181998,45.5985353 C8.11526071,45.4658368 8.59924682,45.2502016 8.47018386,45.0179792 C8.30885515,44.7691694 5.92119035,44.852106 4.58216212,45.1506777 C3.51739268,45.3829002 3.22700102,45.3994875 2.35582602,45.2004397 C1.82344131,45.0843285 1.08132927,44.9350426 0.726406127,44.8852807 C0.0326927054,44.7691694 -0.257698959,44.2881372 0.274685759,44.0890894 C0.436014462,44.0393275 0.710273257,43.8236924 0.88773483,43.6246446 C1.24265798,43.2099616 3.01727371,42.6128182 4.30790333,42.446945 C5.42107138,42.3142465 6.13091767,42.0488494 6.13091767,41.8000396 C6.13091767,41.4682933 5.69533017,41.3687694 3.67872139,41.3024201 C1.46851816,41.2360709 0.9038677,41.086785 0.839336219,40.5725782 C0.807070478,40.356943 0.839336219,40.1247206 0.92000057,40.041784 C0.984532051,39.9754347 2.00090288,39.7929743 3.14633667,39.6436884 C5.42107138,39.361704 6.45357507,39.1294816 6.45357507,38.9138464 C6.45357507,38.6650367 5.93732322,38.5323381 4.63056073,38.4494015 C3.93684731,38.3996396 3.33993111,38.2835284 3.2915325,38.2171791 C3.24313389,38.1342425 3.48512694,37.8024962 3.80778435,37.4541625 C4.38856768,36.8736064 4.45309916,36.8404318 5.74372878,36.7740825 C7.43768016,36.6745586 7.55061025,36.5750347 7.29248433,35.2646366 C7.0343584,33.9874132 7.0343584,33.9376512 7.51834451,33.7551907 C7.76033756,33.6556668 8.13139358,33.4234444 8.37338664,33.2409839 C8.59924682,33.0585234 9.2606945,32.5443166 9.82534496,32.096459 C10.3899954,31.6320141 10.9062473,31.2670931 10.9707787,31.2670931 C11.1159746,31.2670931 12.9551218,29.7576473 13.5036394,29.2102658 C13.7133667,28.9946307 14.5845417,28.4472492 15.4395838,27.9993916 C17.7143185,26.8216921 19.0049481,25.511294 21.3280815,21.9947828 C21.5378088,21.6962111 21.9895291,21.0990676 22.3605852,20.6677974 C22.7155083,20.2531144 23.4737532,19.3076374 24.0384037,18.5777954 C24.6030541,17.8479534 25.3129004,16.9854129 25.619425,16.6536666 C26.3776699,15.8077134 27.9102925,13.6679495 27.9102925,13.435727 C27.9102925,13.3362031 28.0877541,13.0044568 28.3136143,12.6892978 C29.0395935,11.6774714 28.9589291,11.5281855 26.9907189,9.86945381 C25.990481,9.02350062 25.9420824,9.0069133 24.1029351,8.69175428 C23.0704315,8.5258811 21.4732773,8.32683329 20.5537037,8.27707134 C19.6179972,8.21072207 18.8274866,8.09461085 18.7629551,8.01167427 C18.7145565,7.91215036 18.7468222,7.67992792 18.8436194,7.49746743 C19.1017454,6.96667327 19.3598713,5.49040203 19.3598713,4.64444885 C19.3598713,3.84825762 19.4082699,3.78190835 21.2796829,1.37674734 C22.4089838,-0.0829365866 22.747774,-0.149285856 24.0384037,0.746429279 C24.2642639,0.912302453 24.8450472,1.31039807 25.3290333,1.64214441 C25.8130194,1.97389076 26.3938027,2.37198638 26.6196629,2.52127223 C26.8455231,2.67055809 27.5231036,3.13500297 28.1200198,3.53309859 L29.217055,4.27952787 L31.0400694,4.16341665 C32.0403073,4.09706738 33.1212096,3.98095616 33.4116013,3.89801957 C33.7181258,3.79849567 34.6054337,3.68238445 35.3798115,3.61603518 C36.686574,3.51651127 36.8156369,3.54968591 37.1221615,3.86484494 C37.7513434,4.56151226 38.2353295,4.14682933 38.2353295,2.93595517 C38.2353295,2.15635125 38.4289239,1.95730344 39.4614276,1.69190637 C40.0906096,1.52603319 40.3164698,1.36016002 40.7359244,0.746429279 C41.0101832,0.331746346 41.3489735,0 41.4619036,0 C41.5909665,0 41.7684281,0.298571712 41.8652253,0.696667327 C42.1878827,2.02365271 43.026792,2.4880976 43.4785123,1.57579515 C43.6721068,1.19428685 43.8334355,1.07817563 44.2044915,1.07817563 C44.7852748,1.07817563 44.9627364,1.3435727 44.6239461,1.725081 C44.4948832,1.87436686 44.3174216,2.27246247 44.2528901,2.60420882 C44.1722258,2.93595517 43.8818341,3.46674932 43.5914424,3.79849567 C43.0913235,4.37905177 43.026792,4.39563909 41.9458897,4.39563909 C41.0263161,4.39563909 40.7520573,4.46198836 40.4939313,4.72738544 C39.5904906,5.65627521 40.413267,6.00460887 43.8495684,6.13730741 C45.140198,6.20365668 47.2858697,6.83397474 47.5278628,7.23207035 C47.5762614,7.31500694 47.7214572,7.38135621 47.8666531,7.38135621 C48.124779,7.38135621 48.7055623,7.72968987 50.8673669,9.15619916 C51.4642831,9.53770746 52.4322553,10.2012002 53.0453044,10.5827085 C53.6422206,10.9808041 54.5456613,11.5945348 55.0780461,11.9594558 C55.5942979,12.3077895 56.1750812,12.7058851 56.3686757,12.805409 C56.8687947,13.120568 57.820634,13.070806 58.2400886,12.7224724 C58.5788789,12.440488 58.5950118,12.3409641 58.4659488,11.5945348 C58.3530187,10.9642167 58.3852845,10.5992958 58.5788789,9.98556503 C58.9983335,8.72492891 59.1273965,8.69175428 59.8533757,9.53770746 C60.4502919,10.2509621 60.4825576,10.3338987 60.4986905,11.4120743 C60.4986905,12.5400119 60.6438863,12.9049329 61.4989284,13.9333465 C61.7086557,14.1821563 61.7731872,14.6300139 61.805453,15.8243007 L61.8377187,17.3835086 L61.0472081,18.2792237 C60.4825576,18.9095417 59.8695085,19.3573993 58.8854035,19.8550188 C57.6915711,20.4687496 57.3366479,20.5682735 56.2396127,20.6180354 C55.4975007,20.6677974 54.2552697,20.5682735 53.222766,20.4024003 C50.3027165,19.9213681 49.4315415,20.1701779 49.0604855,21.6464491 C48.9314225,22.2104179 48.5764993,24.880976 48.1731776,28.6131224 C47.9473174,30.6533624 48.0763804,30.2884414 46.0759045,34.1698737 C45.7371142,34.8001917 45.2047295,35.6295576 44.8820721,36.0110659 C44.5594147,36.3925742 44.0270299,37.0726542 43.7205054,37.5039245 C43.4139809,37.951782 43.0590577,38.4162269 42.9461276,38.5655128 C42.8170647,38.6982113 41.9942883,39.8261489 41.1069804,41.0536104 C38.9935744,43.9563909 38.5741198,44.4540104 37.557749,45.2336143 C36.686574,45.9136943 35.1378184,47.2240924 34.686098,47.6885373 C34.5409022,47.8378232 34.1375805,48.1695695 33.7987902,48.4349666 C32.9276152,49.0984593 30.3302231,51.3045725 29.1686564,52.3827481 C28.6362717,52.847193 28.2490828,52.9135423 27.6360337,52.6647325 Z" id="Shape"></path>
                    </g>
                </g>
                <g id="bird" transform="translate(403.582015, 194.513437) rotate(-20.000000) translate(-403.582015, -194.513437) translate(310.582015, 115.013437)" fill="#8795A4" fill-rule="nonzero">
                    <g id="Group" transform="translate(92.518779, 79.168144) scale(-1, 1) rotate(-180.000000) translate(-92.518779, -79.168144) translate(0.018779, 0.168144)">
                        <path d="M82.4529898,157.126912 C81.2015335,156.582536 81.0090018,155.741226 82.0679263,155.345316 C82.4529898,155.19685 83.030585,154.157585 83.3675156,153.11832 C83.6563132,152.029567 84.1857754,150.940813 84.5708389,150.643881 C85.3409658,149.951038 85.4372317,147.229154 84.6671048,147.229154 C84.3783072,147.229154 83.030585,148.515863 81.6828629,150.050015 C75.5699802,157.027935 75.4255814,157.126912 72.7301371,157.126912 C69.938427,157.126912 69.3126988,156.434069 70.4197563,154.553495 C70.8048198,153.910141 71.2861491,152.771899 71.4305479,151.980078 C71.6230797,151.138769 72.2488078,149.802571 72.826403,149.010751 C73.4039982,148.169441 74.1259922,146.783755 74.4147898,145.942446 L74.9442521,144.358804 L72.7301371,145.34858 C71.5268138,145.892957 70.1790916,146.635289 69.7458952,147.031199 C68.6869707,148.020975 68.5425719,147.921997 66.6653875,145.991934 C64.6919372,144.012383 64.6438042,143.616472 65.9433934,141.933853 C66.4728557,141.24101 66.9060521,140.300723 66.9060521,139.855324 C66.9060521,139.409925 67.8687108,137.034463 69.1201671,134.659001 C70.3234904,132.23405 71.1898833,129.957566 71.0454844,129.611144 C70.5641551,128.373925 68.3500401,128.819324 58.7234533,132.184562 C57.52013,132.580472 55.0653504,133.322804 53.1881659,133.817692 C51.3591144,134.362068 49.1931324,135.005423 48.3748725,135.302355 C45.7756941,136.242642 42.165724,137.380885 38.9889504,138.321172 C34.8495181,139.558391 31.5764786,140.647145 28.6403696,141.785387 C27.3407804,142.329764 25.4635959,142.923629 24.5490702,143.072096 C23.6345445,143.270051 22.0942906,143.814428 21.1797648,144.259827 C20.2652391,144.705226 18.4361876,145.398069 17.0884654,145.695002 C15.7888762,146.041423 14.3448882,146.635289 13.9598247,146.98171 C13.2859636,147.575576 12.8046343,147.526087 10.3979876,146.536311 C6.83615049,145.051647 6.59548582,144.754715 7.07681516,142.725674 C7.60627744,140.795611 10.10919,139.063504 13.2378307,138.519127 C14.2967553,138.37066 16.0776738,137.826284 17.1847313,137.331396 C18.3399217,136.836508 20.2652391,136.242642 21.5166954,136.044687 C24.2121397,135.648777 25.6561277,135.005423 25.2710642,134.31258 C24.7897349,133.570248 17.6660606,133.817692 13.6710271,134.70849 C10.4942535,135.401333 9.62786066,135.450822 7.02868223,134.856956 C5.44029541,134.510535 3.22618044,134.065136 2.16725589,133.916669 C0.0975397314,133.570248 -0.768853081,132.135073 0.819533741,131.541207 C1.30086308,131.392741 2.11912296,130.749387 2.64858523,130.155521 C3.70750978,128.918301 9.00213252,127.136705 12.8527672,126.641817 C16.1739397,126.245907 18.2917888,125.454086 18.2917888,124.711754 C18.2917888,123.721978 16.9921996,123.425045 10.9755828,123.22709 C4.38137086,123.029135 2.69671817,122.583736 2.50418643,121.049584 C2.40792056,120.406229 2.50418643,119.713386 2.7448511,119.465942 C2.93738284,119.267987 5.96975768,118.72361 9.38719599,118.278211 C16.1739397,117.436902 19.2544475,116.744059 19.2544475,116.100704 C19.2544475,115.358373 17.7141936,114.962462 13.8154259,114.715018 C11.7457098,114.566552 9.9647912,114.22013 9.8203924,114.022175 C9.6759936,113.774731 10.3979876,112.784955 11.3606463,111.745691 C13.0934319,110.013583 13.2859636,109.914605 17.1365984,109.71665 C22.1905564,109.419718 22.527487,109.122785 21.75736,105.21317 C20.9872331,101.402533 20.9872331,101.254067 22.4312211,100.70969 C23.1532151,100.412758 24.2602726,99.7199145 24.9822666,99.1755378 C25.6561277,98.6311611 27.629578,97.0970085 29.3142307,95.7608112 C30.9988834,94.375125 32.5391372,93.2863716 32.731669,93.2863716 C33.1648654,93.2863716 38.6520199,88.7828916 40.2885396,87.1497615 C40.9142678,86.5064072 43.5134462,84.8732771 46.0644917,83.5370797 C52.8512354,80.0233755 56.7018701,76.113761 63.6330126,65.6221373 C64.2587408,64.731339 65.6064629,62.9497425 66.7135204,61.663034 C67.7724449,60.4258142 70.0346928,57.6049531 71.7193455,55.4274463 C73.4039982,53.2499394 75.5218473,50.6765223 76.4363731,49.6867465 C78.698621,47.1628181 83.2712497,40.778764 83.2712497,40.085921 C83.2712497,39.7889882 83.800712,38.7992124 84.474573,37.8589253 C86.6405551,34.8401091 86.3998904,34.39471 80.5276724,29.4458308 C77.5434305,26.9219025 77.3990317,26.8724137 71.9118773,25.9321266 C68.8313695,25.4372387 64.066209,24.8433732 61.3226318,24.6949069 C58.5309216,24.4969517 56.1724078,24.1505302 55.9798761,23.9030862 C55.8354773,23.6061534 55.9317432,22.9133104 56.2205408,22.3689337 C56.9906677,20.7852923 57.7607947,16.3807899 57.7607947,13.8568616 C57.7607947,11.4813996 57.9051935,11.2834444 63.4886138,4.10756968 C66.8579192,-0.247443956 67.8687108,-0.445399122 71.7193455,2.22699561 C72.3932066,2.72188352 74.1259922,3.90961451 75.5699802,4.89939034 C77.0139683,5.88916616 78.7467539,7.07689716 79.420615,7.52229628 C80.094476,7.9676954 82.1160593,9.35338156 83.8969778,10.5411125 L87.1700173,12.7681082 L92.6090389,12.4216866 C95.5932808,12.2237315 98.8181874,11.8773099 99.6845802,11.629866 C100.599106,11.3329332 103.246417,10.9865117 105.556798,10.7885565 C109.455566,10.4916238 109.840629,10.5906013 110.755155,11.5308884 C112.632339,13.6094176 114.076327,12.3721978 114.076327,8.75951606 C114.076327,6.43354287 114.653923,5.83967737 117.73443,5.04785671 C119.611615,4.5529688 120.285476,4.05808089 121.536932,2.22699561 C122.355192,0.989775826 123.365984,0 123.702914,0 C124.087978,0 124.61744,0.890798243 124.906238,2.07852923 C125.868896,6.03763254 128.371809,7.42331869 129.719531,4.70143517 C130.297126,3.56319297 130.778456,3.21677143 131.885513,3.21677143 C133.618299,3.21677143 134.147761,4.0085921 133.136969,5.14683429 C132.751906,5.59223342 132.222444,6.77996441 132.029912,7.76974023 C131.789247,8.75951606 130.922854,10.3431574 130.056462,11.3329332 C128.564341,13.0650409 128.371809,13.1145297 125.146902,13.1145297 C122.403325,13.1145297 121.585065,13.3124849 120.814938,14.1043055 C118.119494,16.8756778 120.574274,17.9149424 130.826588,18.3108528 C134.677223,18.5088079 141.078903,20.389382 141.800897,21.577113 C141.945296,21.824557 142.378493,22.0225121 142.811689,22.0225121 C143.581816,22.0225121 145.314602,23.0617767 151.764415,27.3178128 C153.545333,28.456055 156.433309,30.4356066 158.262361,31.5738488 C160.043279,32.7615798 162.738724,34.5926651 164.327111,35.6814185 C165.867364,36.7206831 167.60015,37.9084141 168.177745,38.2053469 C169.669866,39.1456339 172.509709,38.9971675 173.761166,37.9579029 C174.771957,37.1165935 174.82009,36.8196607 174.435027,34.5926651 C174.098096,32.712091 174.194362,31.6233376 174.771957,29.7922524 C176.023414,26.0311042 176.408477,25.9321266 178.574459,28.456055 C180.355378,30.584073 180.451643,30.831517 180.499776,34.0482884 C180.499776,37.4135262 180.932973,38.5022796 183.484018,41.5705847 C184.109746,42.3129166 184.302278,43.6491139 184.398544,47.2123069 L184.49481,51.8642533 L182.136296,54.536648 C180.451643,56.4172221 178.622592,57.7534194 175.686483,59.2380832 C172.124646,61.0691685 171.065721,61.3661012 167.792682,61.5145676 C165.578567,61.663034 161.872331,61.3661012 158.791823,60.8712133 C150.079762,59.4360383 147.480584,60.1783702 146.373526,64.5828726 C145.988463,66.2654915 144.929538,74.2331869 143.726215,85.368165 C143.052354,91.4552863 143.437417,90.3665329 137.468933,101.94691 C136.458142,103.827484 134.869755,106.301924 133.907096,107.440166 C132.944438,108.578408 131.356051,110.607449 130.441525,111.894157 C129.526999,113.230354 128.468075,114.616041 128.131144,115.06144 C127.746081,115.45735 125.291301,118.822588 122.64399,122.484758 C116.338575,131.145297 115.087119,132.629961 112.054744,134.955934 C109.455566,136.984974 104.834804,140.894589 103.487082,142.280275 C103.053886,142.725674 101.850562,143.71545 100.839771,144.507271 C98.2405922,146.486822 90.4911898,153.068831 87.0256185,156.285603 C85.4372317,157.671289 84.2820413,157.869244 82.4529898,157.126912 Z" id="Shape"></path>
                    </g>
                </g>
                <g id="Ethereum-Logo" transform="translate(388.000000, 18.000000)">
                    <polygon id="Triangle-3" fill="#C1D0E0" points="16 0 16 19.3041912 0 26.5"></polygon>
                    <polygon id="Triangle-3" fill="#C1D0E0" points="16 38.9500569 16 51.9122486 0 29.5"></polygon>
                    <polygon id="Triangle-3" fill="#A5B4C5" transform="translate(24.000000, 40.706124) scale(-1, 1) translate(-24.000000, -40.706124) " points="32 38.9500569 32 51.9122486 16 29.5"></polygon>
                    <polygon id="Triangle-3" fill="#A5B4C5" transform="translate(24.000000, 13.250000) scale(-1, 1) translate(-24.000000, -13.250000) " points="32 0 32 19.3041912 16 26.5"></polygon>
                    <polygon id="Path-2" fill="#A5B4C5" points="0 26.4882954 15.9815519 35.9350137 15.9815519 19.3000031"></polygon>
                    <polygon id="Path-2" fill="#8795A4" transform="translate(23.981552, 27.617508) scale(-1, 1) translate(-23.981552, -27.617508) " points="15.9815519 26.4882954 31.9815519 35.9350137 31.9815519 19.3000031"></polygon>
                </g>
                <g id="Ethereum-Logo" transform="translate(388.000000, 319.000000)">
                    <polygon id="Triangle-3" fill="#C1D0E0" points="16 0 16 19.3041912 0 26.5"></polygon>
                    <polygon id="Triangle-3" fill="#C1D0E0" points="16 38.9500569 16 51.9122486 0 29.5"></polygon>
                    <polygon id="Triangle-3" fill="#A5B4C5" transform="translate(24.000000, 40.706124) scale(-1, 1) translate(-24.000000, -40.706124) " points="32 38.9500569 32 51.9122486 16 29.5"></polygon>
                    <polygon id="Triangle-3" fill="#A5B4C5" transform="translate(24.000000, 13.250000) scale(-1, 1) translate(-24.000000, -13.250000) " points="32 0 32 19.3041912 16 26.5"></polygon>
                    <polygon id="Path-2" fill="#A5B4C5" points="0 26.4882954 15.9815519 35.9350137 15.9815519 19.3000031"></polygon>
                    <polygon id="Path-2" fill="#8795A4" transform="translate(23.981552, 27.617508) scale(-1, 1) translate(-23.981552, -27.617508) " points="15.9815519 26.4882954 31.9815519 35.9350137 31.9815519 19.3000031"></polygon>
                </g>
                <path d="M128.5,45.5 L346.502294,45.5" id="Line-2" stroke="#8795A4" stroke-width="4" stroke-linecap="round" stroke-linejoin="round"></path>
                <path d="M52.5,99.5 L52.5,292.109709" id="Line-2" stroke="#8795A4" stroke-width="4" stroke-linecap="round" stroke-linejoin="round"></path>
                <path d="M762.5,99.5 L762.5,292.109709" id="Line-2" stroke="#8795A4" stroke-width="4" stroke-linecap="round" stroke-linejoin="round"></path>
                <path d="M461.5,45.5 L679.502294,45.5" id="Line-2" stroke="#8795A4" stroke-width="4" stroke-linecap="round" stroke-linejoin="round"></path>
                <path d="M128.5,344.5 L346.502294,344.5" id="Line-2" stroke="#8795A4" stroke-width="4" stroke-linecap="round" stroke-linejoin="round"></path>
                <path d="M461.5,344.5 L679.502294,344.5" id="Line-2" stroke="#8795A4" stroke-width="4" stroke-linecap="round" stroke-linejoin="round"></path>
            </g>
            <polygon id="Rectangle-12" fill-opacity="0.2" fill="#000000" points="102.263963 433.563393 709.656076 433 514.91146 595 63.8562077 595.437837 48 576.54384 47.3483048 479.666675"></polygon>
            <g id="DMG-Bill" transform="translate(56.000000, 440.000000)">
                <rect id="Rectangle-11" fill="#D1E1F1" x="0" y="0" width="808" height="390"></rect>
                <g id="Group" transform="translate(386.661864, 222.203662) scale(-1, 1) rotate(-180.000000) translate(-386.661864, -222.203662) translate(312.161864, 158.703662)"></g>
                <g id="bird" transform="translate(757.834861, 46.145335) rotate(-20.000000) translate(-757.834861, -46.145335) translate(726.334861, 19.145335)" fill="#8795A4" fill-rule="nonzero">
                    <g id="Group" transform="translate(31.006294, 27.326245) scale(-1, 1) rotate(-180.000000) translate(-31.006294, -27.326245) translate(0.006294, 0.826245)">
                        <path d="M27.6360337,52.6647325 C27.2165791,52.482272 27.1520476,52.2002876 27.5069708,52.0675891 C27.6360337,52.0178271 27.8296282,51.6694935 27.9425583,51.3211598 C28.0393555,50.9562388 28.2168171,50.5913178 28.34588,50.4917939 C28.604006,50.2595715 28.6362717,49.347269 28.3781458,49.347269 C28.2813485,49.347269 27.8296282,49.7785393 27.3779078,50.2927461 C25.3290333,52.6315579 25.2806347,52.6647325 24.3771939,52.6647325 C23.4414875,52.6647325 23.2317602,52.43251 23.6028162,51.802192 C23.7318791,51.5865569 23.8932078,51.2050486 23.9416064,50.9396515 C24.0061379,50.6576671 24.2158652,50.2098095 24.4094597,49.9444125 C24.6030541,49.6624281 24.8450472,49.1979832 24.9418444,48.9159988 L25.119306,48.3852046 L24.3771939,48.716951 C23.9738722,48.8994115 23.5221518,49.1482212 23.376956,49.2809198 C23.0220328,49.6126661 22.9736342,49.5794915 22.3444523,48.9325861 C21.6830046,48.2690934 21.6668717,48.1363949 22.1024592,47.5724261 C22.2799208,47.3402036 22.4251166,47.0250446 22.4251166,46.8757587 C22.4251166,46.7264729 22.747774,45.9302817 23.1672287,45.1340904 C23.5705504,44.3213119 23.8609421,43.5582953 23.8125435,43.4421841 C23.6512148,43.0275011 22.9091027,43.176787 19.6825287,44.3047246 C19.2792069,44.4374231 18.4564306,44.6862329 17.8272486,44.852106 C17.2141995,45.0345665 16.4882204,45.2502016 16.2139616,45.3497256 C15.3427866,45.6648846 14.1328213,46.0463929 13.0680519,46.3615519 C11.680625,46.7762348 10.5835899,47.1411558 9.59948478,47.5226641 C9.16389728,47.7051246 8.53471534,47.9041724 8.2281908,47.9539344 C7.92166627,48.0202836 7.40541442,48.2027441 7.09888988,48.35203 C6.79236535,48.5013158 6.17931628,48.7335383 5.72759591,48.8330622 C5.29200841,48.9491734 4.80802231,49.1482212 4.67895934,49.2643324 C4.45309916,49.4633802 4.29177046,49.4467929 3.48512694,49.1150466 C2.29129454,48.6174271 2.21063019,48.5179032 2.37195889,47.8378232 C2.54942047,47.1909178 3.38832972,46.6103617 4.43696629,46.4279012 C4.79188944,46.3781392 5.38880564,46.1956787 5.75986165,46.0298056 C6.14705054,45.8639324 6.79236535,45.6648846 7.21181998,45.5985353 C8.11526071,45.4658368 8.59924682,45.2502016 8.47018386,45.0179792 C8.30885515,44.7691694 5.92119035,44.852106 4.58216212,45.1506777 C3.51739268,45.3829002 3.22700102,45.3994875 2.35582602,45.2004397 C1.82344131,45.0843285 1.08132927,44.9350426 0.726406127,44.8852807 C0.0326927054,44.7691694 -0.257698959,44.2881372 0.274685759,44.0890894 C0.436014462,44.0393275 0.710273257,43.8236924 0.88773483,43.6246446 C1.24265798,43.2099616 3.01727371,42.6128182 4.30790333,42.446945 C5.42107138,42.3142465 6.13091767,42.0488494 6.13091767,41.8000396 C6.13091767,41.4682933 5.69533017,41.3687694 3.67872139,41.3024201 C1.46851816,41.2360709 0.9038677,41.086785 0.839336219,40.5725782 C0.807070478,40.356943 0.839336219,40.1247206 0.92000057,40.041784 C0.984532051,39.9754347 2.00090288,39.7929743 3.14633667,39.6436884 C5.42107138,39.361704 6.45357507,39.1294816 6.45357507,38.9138464 C6.45357507,38.6650367 5.93732322,38.5323381 4.63056073,38.4494015 C3.93684731,38.3996396 3.33993111,38.2835284 3.2915325,38.2171791 C3.24313389,38.1342425 3.48512694,37.8024962 3.80778435,37.4541625 C4.38856768,36.8736064 4.45309916,36.8404318 5.74372878,36.7740825 C7.43768016,36.6745586 7.55061025,36.5750347 7.29248433,35.2646366 C7.0343584,33.9874132 7.0343584,33.9376512 7.51834451,33.7551907 C7.76033756,33.6556668 8.13139358,33.4234444 8.37338664,33.2409839 C8.59924682,33.0585234 9.2606945,32.5443166 9.82534496,32.096459 C10.3899954,31.6320141 10.9062473,31.2670931 10.9707787,31.2670931 C11.1159746,31.2670931 12.9551218,29.7576473 13.5036394,29.2102658 C13.7133667,28.9946307 14.5845417,28.4472492 15.4395838,27.9993916 C17.7143185,26.8216921 19.0049481,25.511294 21.3280815,21.9947828 C21.5378088,21.6962111 21.9895291,21.0990676 22.3605852,20.6677974 C22.7155083,20.2531144 23.4737532,19.3076374 24.0384037,18.5777954 C24.6030541,17.8479534 25.3129004,16.9854129 25.619425,16.6536666 C26.3776699,15.8077134 27.9102925,13.6679495 27.9102925,13.435727 C27.9102925,13.3362031 28.0877541,13.0044568 28.3136143,12.6892978 C29.0395935,11.6774714 28.9589291,11.5281855 26.9907189,9.86945381 C25.990481,9.02350062 25.9420824,9.0069133 24.1029351,8.69175428 C23.0704315,8.5258811 21.4732773,8.32683329 20.5537037,8.27707134 C19.6179972,8.21072207 18.8274866,8.09461085 18.7629551,8.01167427 C18.7145565,7.91215036 18.7468222,7.67992792 18.8436194,7.49746743 C19.1017454,6.96667327 19.3598713,5.49040203 19.3598713,4.64444885 C19.3598713,3.84825762 19.4082699,3.78190835 21.2796829,1.37674734 C22.4089838,-0.0829365866 22.747774,-0.149285856 24.0384037,0.746429279 C24.2642639,0.912302453 24.8450472,1.31039807 25.3290333,1.64214441 C25.8130194,1.97389076 26.3938027,2.37198638 26.6196629,2.52127223 C26.8455231,2.67055809 27.5231036,3.13500297 28.1200198,3.53309859 L29.217055,4.27952787 L31.0400694,4.16341665 C32.0403073,4.09706738 33.1212096,3.98095616 33.4116013,3.89801957 C33.7181258,3.79849567 34.6054337,3.68238445 35.3798115,3.61603518 C36.686574,3.51651127 36.8156369,3.54968591 37.1221615,3.86484494 C37.7513434,4.56151226 38.2353295,4.14682933 38.2353295,2.93595517 C38.2353295,2.15635125 38.4289239,1.95730344 39.4614276,1.69190637 C40.0906096,1.52603319 40.3164698,1.36016002 40.7359244,0.746429279 C41.0101832,0.331746346 41.3489735,0 41.4619036,0 C41.5909665,0 41.7684281,0.298571712 41.8652253,0.696667327 C42.1878827,2.02365271 43.026792,2.4880976 43.4785123,1.57579515 C43.6721068,1.19428685 43.8334355,1.07817563 44.2044915,1.07817563 C44.7852748,1.07817563 44.9627364,1.3435727 44.6239461,1.725081 C44.4948832,1.87436686 44.3174216,2.27246247 44.2528901,2.60420882 C44.1722258,2.93595517 43.8818341,3.46674932 43.5914424,3.79849567 C43.0913235,4.37905177 43.026792,4.39563909 41.9458897,4.39563909 C41.0263161,4.39563909 40.7520573,4.46198836 40.4939313,4.72738544 C39.5904906,5.65627521 40.413267,6.00460887 43.8495684,6.13730741 C45.140198,6.20365668 47.2858697,6.83397474 47.5278628,7.23207035 C47.5762614,7.31500694 47.7214572,7.38135621 47.8666531,7.38135621 C48.124779,7.38135621 48.7055623,7.72968987 50.8673669,9.15619916 C51.4642831,9.53770746 52.4322553,10.2012002 53.0453044,10.5827085 C53.6422206,10.9808041 54.5456613,11.5945348 55.0780461,11.9594558 C55.5942979,12.3077895 56.1750812,12.7058851 56.3686757,12.805409 C56.8687947,13.120568 57.820634,13.070806 58.2400886,12.7224724 C58.5788789,12.440488 58.5950118,12.3409641 58.4659488,11.5945348 C58.3530187,10.9642167 58.3852845,10.5992958 58.5788789,9.98556503 C58.9983335,8.72492891 59.1273965,8.69175428 59.8533757,9.53770746 C60.4502919,10.2509621 60.4825576,10.3338987 60.4986905,11.4120743 C60.4986905,12.5400119 60.6438863,12.9049329 61.4989284,13.9333465 C61.7086557,14.1821563 61.7731872,14.6300139 61.805453,15.8243007 L61.8377187,17.3835086 L61.0472081,18.2792237 C60.4825576,18.9095417 59.8695085,19.3573993 58.8854035,19.8550188 C57.6915711,20.4687496 57.3366479,20.5682735 56.2396127,20.6180354 C55.4975007,20.6677974 54.2552697,20.5682735 53.222766,20.4024003 C50.3027165,19.9213681 49.4315415,20.1701779 49.0604855,21.6464491 C48.9314225,22.2104179 48.5764993,24.880976 48.1731776,28.6131224 C47.9473174,30.6533624 48.0763804,30.2884414 46.0759045,34.1698737 C45.7371142,34.8001917 45.2047295,35.6295576 44.8820721,36.0110659 C44.5594147,36.3925742 44.0270299,37.0726542 43.7205054,37.5039245 C43.4139809,37.951782 43.0590577,38.4162269 42.9461276,38.5655128 C42.8170647,38.6982113 41.9942883,39.8261489 41.1069804,41.0536104 C38.9935744,43.9563909 38.5741198,44.4540104 37.557749,45.2336143 C36.686574,45.9136943 35.1378184,47.2240924 34.686098,47.6885373 C34.5409022,47.8378232 34.1375805,48.1695695 33.7987902,48.4349666 C32.9276152,49.0984593 30.3302231,51.3045725 29.1686564,52.3827481 C28.6362717,52.847193 28.2490828,52.9135423 27.6360337,52.6647325 Z" id="Shape"></path>
                    </g>
                </g>
                <g id="bird" transform="translate(57.834861, 46.145335) rotate(-20.000000) translate(-57.834861, -46.145335) translate(26.334861, 19.145335)" fill="#8795A4" fill-rule="nonzero">
                    <g id="Group" transform="translate(31.006294, 27.326245) scale(-1, 1) rotate(-180.000000) translate(-31.006294, -27.326245) translate(0.006294, 0.826245)">
                        <path d="M27.6360337,52.6647325 C27.2165791,52.482272 27.1520476,52.2002876 27.5069708,52.0675891 C27.6360337,52.0178271 27.8296282,51.6694935 27.9425583,51.3211598 C28.0393555,50.9562388 28.2168171,50.5913178 28.34588,50.4917939 C28.604006,50.2595715 28.6362717,49.347269 28.3781458,49.347269 C28.2813485,49.347269 27.8296282,49.7785393 27.3779078,50.2927461 C25.3290333,52.6315579 25.2806347,52.6647325 24.3771939,52.6647325 C23.4414875,52.6647325 23.2317602,52.43251 23.6028162,51.802192 C23.7318791,51.5865569 23.8932078,51.2050486 23.9416064,50.9396515 C24.0061379,50.6576671 24.2158652,50.2098095 24.4094597,49.9444125 C24.6030541,49.6624281 24.8450472,49.1979832 24.9418444,48.9159988 L25.119306,48.3852046 L24.3771939,48.716951 C23.9738722,48.8994115 23.5221518,49.1482212 23.376956,49.2809198 C23.0220328,49.6126661 22.9736342,49.5794915 22.3444523,48.9325861 C21.6830046,48.2690934 21.6668717,48.1363949 22.1024592,47.5724261 C22.2799208,47.3402036 22.4251166,47.0250446 22.4251166,46.8757587 C22.4251166,46.7264729 22.747774,45.9302817 23.1672287,45.1340904 C23.5705504,44.3213119 23.8609421,43.5582953 23.8125435,43.4421841 C23.6512148,43.0275011 22.9091027,43.176787 19.6825287,44.3047246 C19.2792069,44.4374231 18.4564306,44.6862329 17.8272486,44.852106 C17.2141995,45.0345665 16.4882204,45.2502016 16.2139616,45.3497256 C15.3427866,45.6648846 14.1328213,46.0463929 13.0680519,46.3615519 C11.680625,46.7762348 10.5835899,47.1411558 9.59948478,47.5226641 C9.16389728,47.7051246 8.53471534,47.9041724 8.2281908,47.9539344 C7.92166627,48.0202836 7.40541442,48.2027441 7.09888988,48.35203 C6.79236535,48.5013158 6.17931628,48.7335383 5.72759591,48.8330622 C5.29200841,48.9491734 4.80802231,49.1482212 4.67895934,49.2643324 C4.45309916,49.4633802 4.29177046,49.4467929 3.48512694,49.1150466 C2.29129454,48.6174271 2.21063019,48.5179032 2.37195889,47.8378232 C2.54942047,47.1909178 3.38832972,46.6103617 4.43696629,46.4279012 C4.79188944,46.3781392 5.38880564,46.1956787 5.75986165,46.0298056 C6.14705054,45.8639324 6.79236535,45.6648846 7.21181998,45.5985353 C8.11526071,45.4658368 8.59924682,45.2502016 8.47018386,45.0179792 C8.30885515,44.7691694 5.92119035,44.852106 4.58216212,45.1506777 C3.51739268,45.3829002 3.22700102,45.3994875 2.35582602,45.2004397 C1.82344131,45.0843285 1.08132927,44.9350426 0.726406127,44.8852807 C0.0326927054,44.7691694 -0.257698959,44.2881372 0.274685759,44.0890894 C0.436014462,44.0393275 0.710273257,43.8236924 0.88773483,43.6246446 C1.24265798,43.2099616 3.01727371,42.6128182 4.30790333,42.446945 C5.42107138,42.3142465 6.13091767,42.0488494 6.13091767,41.8000396 C6.13091767,41.4682933 5.69533017,41.3687694 3.67872139,41.3024201 C1.46851816,41.2360709 0.9038677,41.086785 0.839336219,40.5725782 C0.807070478,40.356943 0.839336219,40.1247206 0.92000057,40.041784 C0.984532051,39.9754347 2.00090288,39.7929743 3.14633667,39.6436884 C5.42107138,39.361704 6.45357507,39.1294816 6.45357507,38.9138464 C6.45357507,38.6650367 5.93732322,38.5323381 4.63056073,38.4494015 C3.93684731,38.3996396 3.33993111,38.2835284 3.2915325,38.2171791 C3.24313389,38.1342425 3.48512694,37.8024962 3.80778435,37.4541625 C4.38856768,36.8736064 4.45309916,36.8404318 5.74372878,36.7740825 C7.43768016,36.6745586 7.55061025,36.5750347 7.29248433,35.2646366 C7.0343584,33.9874132 7.0343584,33.9376512 7.51834451,33.7551907 C7.76033756,33.6556668 8.13139358,33.4234444 8.37338664,33.2409839 C8.59924682,33.0585234 9.2606945,32.5443166 9.82534496,32.096459 C10.3899954,31.6320141 10.9062473,31.2670931 10.9707787,31.2670931 C11.1159746,31.2670931 12.9551218,29.7576473 13.5036394,29.2102658 C13.7133667,28.9946307 14.5845417,28.4472492 15.4395838,27.9993916 C17.7143185,26.8216921 19.0049481,25.511294 21.3280815,21.9947828 C21.5378088,21.6962111 21.9895291,21.0990676 22.3605852,20.6677974 C22.7155083,20.2531144 23.4737532,19.3076374 24.0384037,18.5777954 C24.6030541,17.8479534 25.3129004,16.9854129 25.619425,16.6536666 C26.3776699,15.8077134 27.9102925,13.6679495 27.9102925,13.435727 C27.9102925,13.3362031 28.0877541,13.0044568 28.3136143,12.6892978 C29.0395935,11.6774714 28.9589291,11.5281855 26.9907189,9.86945381 C25.990481,9.02350062 25.9420824,9.0069133 24.1029351,8.69175428 C23.0704315,8.5258811 21.4732773,8.32683329 20.5537037,8.27707134 C19.6179972,8.21072207 18.8274866,8.09461085 18.7629551,8.01167427 C18.7145565,7.91215036 18.7468222,7.67992792 18.8436194,7.49746743 C19.1017454,6.96667327 19.3598713,5.49040203 19.3598713,4.64444885 C19.3598713,3.84825762 19.4082699,3.78190835 21.2796829,1.37674734 C22.4089838,-0.0829365866 22.747774,-0.149285856 24.0384037,0.746429279 C24.2642639,0.912302453 24.8450472,1.31039807 25.3290333,1.64214441 C25.8130194,1.97389076 26.3938027,2.37198638 26.6196629,2.52127223 C26.8455231,2.67055809 27.5231036,3.13500297 28.1200198,3.53309859 L29.217055,4.27952787 L31.0400694,4.16341665 C32.0403073,4.09706738 33.1212096,3.98095616 33.4116013,3.89801957 C33.7181258,3.79849567 34.6054337,3.68238445 35.3798115,3.61603518 C36.686574,3.51651127 36.8156369,3.54968591 37.1221615,3.86484494 C37.7513434,4.56151226 38.2353295,4.14682933 38.2353295,2.93595517 C38.2353295,2.15635125 38.4289239,1.95730344 39.4614276,1.69190637 C40.0906096,1.52603319 40.3164698,1.36016002 40.7359244,0.746429279 C41.0101832,0.331746346 41.3489735,0 41.4619036,0 C41.5909665,0 41.7684281,0.298571712 41.8652253,0.696667327 C42.1878827,2.02365271 43.026792,2.4880976 43.4785123,1.57579515 C43.6721068,1.19428685 43.8334355,1.07817563 44.2044915,1.07817563 C44.7852748,1.07817563 44.9627364,1.3435727 44.6239461,1.725081 C44.4948832,1.87436686 44.3174216,2.27246247 44.2528901,2.60420882 C44.1722258,2.93595517 43.8818341,3.46674932 43.5914424,3.79849567 C43.0913235,4.37905177 43.026792,4.39563909 41.9458897,4.39563909 C41.0263161,4.39563909 40.7520573,4.46198836 40.4939313,4.72738544 C39.5904906,5.65627521 40.413267,6.00460887 43.8495684,6.13730741 C45.140198,6.20365668 47.2858697,6.83397474 47.5278628,7.23207035 C47.5762614,7.31500694 47.7214572,7.38135621 47.8666531,7.38135621 C48.124779,7.38135621 48.7055623,7.72968987 50.8673669,9.15619916 C51.4642831,9.53770746 52.4322553,10.2012002 53.0453044,10.5827085 C53.6422206,10.9808041 54.5456613,11.5945348 55.0780461,11.9594558 C55.5942979,12.3077895 56.1750812,12.7058851 56.3686757,12.805409 C56.8687947,13.120568 57.820634,13.070806 58.2400886,12.7224724 C58.5788789,12.440488 58.5950118,12.3409641 58.4659488,11.5945348 C58.3530187,10.9642167 58.3852845,10.5992958 58.5788789,9.98556503 C58.9983335,8.72492891 59.1273965,8.69175428 59.8533757,9.53770746 C60.4502919,10.2509621 60.4825576,10.3338987 60.4986905,11.4120743 C60.4986905,12.5400119 60.6438863,12.9049329 61.4989284,13.9333465 C61.7086557,14.1821563 61.7731872,14.6300139 61.805453,15.8243007 L61.8377187,17.3835086 L61.0472081,18.2792237 C60.4825576,18.9095417 59.8695085,19.3573993 58.8854035,19.8550188 C57.6915711,20.4687496 57.3366479,20.5682735 56.2396127,20.6180354 C55.4975007,20.6677974 54.2552697,20.5682735 53.222766,20.4024003 C50.3027165,19.9213681 49.4315415,20.1701779 49.0604855,21.6464491 C48.9314225,22.2104179 48.5764993,24.880976 48.1731776,28.6131224 C47.9473174,30.6533624 48.0763804,30.2884414 46.0759045,34.1698737 C45.7371142,34.8001917 45.2047295,35.6295576 44.8820721,36.0110659 C44.5594147,36.3925742 44.0270299,37.0726542 43.7205054,37.5039245 C43.4139809,37.951782 43.0590577,38.4162269 42.9461276,38.5655128 C42.8170647,38.6982113 41.9942883,39.8261489 41.1069804,41.0536104 C38.9935744,43.9563909 38.5741198,44.4540104 37.557749,45.2336143 C36.686574,45.9136943 35.1378184,47.2240924 34.686098,47.6885373 C34.5409022,47.8378232 34.1375805,48.1695695 33.7987902,48.4349666 C32.9276152,49.0984593 30.3302231,51.3045725 29.1686564,52.3827481 C28.6362717,52.847193 28.2490828,52.9135423 27.6360337,52.6647325 Z" id="Shape"></path>
                    </g>
                </g>
                <g id="bird" transform="translate(757.834861, 346.145335) rotate(-20.000000) translate(-757.834861, -346.145335) translate(726.334861, 319.145335)" fill="#8795A4" fill-rule="nonzero">
                    <g id="Group" transform="translate(31.006294, 27.326245) scale(-1, 1) rotate(-180.000000) translate(-31.006294, -27.326245) translate(0.006294, 0.826245)">
                        <path d="M27.6360337,52.6647325 C27.2165791,52.482272 27.1520476,52.2002876 27.5069708,52.0675891 C27.6360337,52.0178271 27.8296282,51.6694935 27.9425583,51.3211598 C28.0393555,50.9562388 28.2168171,50.5913178 28.34588,50.4917939 C28.604006,50.2595715 28.6362717,49.347269 28.3781458,49.347269 C28.2813485,49.347269 27.8296282,49.7785393 27.3779078,50.2927461 C25.3290333,52.6315579 25.2806347,52.6647325 24.3771939,52.6647325 C23.4414875,52.6647325 23.2317602,52.43251 23.6028162,51.802192 C23.7318791,51.5865569 23.8932078,51.2050486 23.9416064,50.9396515 C24.0061379,50.6576671 24.2158652,50.2098095 24.4094597,49.9444125 C24.6030541,49.6624281 24.8450472,49.1979832 24.9418444,48.9159988 L25.119306,48.3852046 L24.3771939,48.716951 C23.9738722,48.8994115 23.5221518,49.1482212 23.376956,49.2809198 C23.0220328,49.6126661 22.9736342,49.5794915 22.3444523,48.9325861 C21.6830046,48.2690934 21.6668717,48.1363949 22.1024592,47.5724261 C22.2799208,47.3402036 22.4251166,47.0250446 22.4251166,46.8757587 C22.4251166,46.7264729 22.747774,45.9302817 23.1672287,45.1340904 C23.5705504,44.3213119 23.8609421,43.5582953 23.8125435,43.4421841 C23.6512148,43.0275011 22.9091027,43.176787 19.6825287,44.3047246 C19.2792069,44.4374231 18.4564306,44.6862329 17.8272486,44.852106 C17.2141995,45.0345665 16.4882204,45.2502016 16.2139616,45.3497256 C15.3427866,45.6648846 14.1328213,46.0463929 13.0680519,46.3615519 C11.680625,46.7762348 10.5835899,47.1411558 9.59948478,47.5226641 C9.16389728,47.7051246 8.53471534,47.9041724 8.2281908,47.9539344 C7.92166627,48.0202836 7.40541442,48.2027441 7.09888988,48.35203 C6.79236535,48.5013158 6.17931628,48.7335383 5.72759591,48.8330622 C5.29200841,48.9491734 4.80802231,49.1482212 4.67895934,49.2643324 C4.45309916,49.4633802 4.29177046,49.4467929 3.48512694,49.1150466 C2.29129454,48.6174271 2.21063019,48.5179032 2.37195889,47.8378232 C2.54942047,47.1909178 3.38832972,46.6103617 4.43696629,46.4279012 C4.79188944,46.3781392 5.38880564,46.1956787 5.75986165,46.0298056 C6.14705054,45.8639324 6.79236535,45.6648846 7.21181998,45.5985353 C8.11526071,45.4658368 8.59924682,45.2502016 8.47018386,45.0179792 C8.30885515,44.7691694 5.92119035,44.852106 4.58216212,45.1506777 C3.51739268,45.3829002 3.22700102,45.3994875 2.35582602,45.2004397 C1.82344131,45.0843285 1.08132927,44.9350426 0.726406127,44.8852807 C0.0326927054,44.7691694 -0.257698959,44.2881372 0.274685759,44.0890894 C0.436014462,44.0393275 0.710273257,43.8236924 0.88773483,43.6246446 C1.24265798,43.2099616 3.01727371,42.6128182 4.30790333,42.446945 C5.42107138,42.3142465 6.13091767,42.0488494 6.13091767,41.8000396 C6.13091767,41.4682933 5.69533017,41.3687694 3.67872139,41.3024201 C1.46851816,41.2360709 0.9038677,41.086785 0.839336219,40.5725782 C0.807070478,40.356943 0.839336219,40.1247206 0.92000057,40.041784 C0.984532051,39.9754347 2.00090288,39.7929743 3.14633667,39.6436884 C5.42107138,39.361704 6.45357507,39.1294816 6.45357507,38.9138464 C6.45357507,38.6650367 5.93732322,38.5323381 4.63056073,38.4494015 C3.93684731,38.3996396 3.33993111,38.2835284 3.2915325,38.2171791 C3.24313389,38.1342425 3.48512694,37.8024962 3.80778435,37.4541625 C4.38856768,36.8736064 4.45309916,36.8404318 5.74372878,36.7740825 C7.43768016,36.6745586 7.55061025,36.5750347 7.29248433,35.2646366 C7.0343584,33.9874132 7.0343584,33.9376512 7.51834451,33.7551907 C7.76033756,33.6556668 8.13139358,33.4234444 8.37338664,33.2409839 C8.59924682,33.0585234 9.2606945,32.5443166 9.82534496,32.096459 C10.3899954,31.6320141 10.9062473,31.2670931 10.9707787,31.2670931 C11.1159746,31.2670931 12.9551218,29.7576473 13.5036394,29.2102658 C13.7133667,28.9946307 14.5845417,28.4472492 15.4395838,27.9993916 C17.7143185,26.8216921 19.0049481,25.511294 21.3280815,21.9947828 C21.5378088,21.6962111 21.9895291,21.0990676 22.3605852,20.6677974 C22.7155083,20.2531144 23.4737532,19.3076374 24.0384037,18.5777954 C24.6030541,17.8479534 25.3129004,16.9854129 25.619425,16.6536666 C26.3776699,15.8077134 27.9102925,13.6679495 27.9102925,13.435727 C27.9102925,13.3362031 28.0877541,13.0044568 28.3136143,12.6892978 C29.0395935,11.6774714 28.9589291,11.5281855 26.9907189,9.86945381 C25.990481,9.02350062 25.9420824,9.0069133 24.1029351,8.69175428 C23.0704315,8.5258811 21.4732773,8.32683329 20.5537037,8.27707134 C19.6179972,8.21072207 18.8274866,8.09461085 18.7629551,8.01167427 C18.7145565,7.91215036 18.7468222,7.67992792 18.8436194,7.49746743 C19.1017454,6.96667327 19.3598713,5.49040203 19.3598713,4.64444885 C19.3598713,3.84825762 19.4082699,3.78190835 21.2796829,1.37674734 C22.4089838,-0.0829365866 22.747774,-0.149285856 24.0384037,0.746429279 C24.2642639,0.912302453 24.8450472,1.31039807 25.3290333,1.64214441 C25.8130194,1.97389076 26.3938027,2.37198638 26.6196629,2.52127223 C26.8455231,2.67055809 27.5231036,3.13500297 28.1200198,3.53309859 L29.217055,4.27952787 L31.0400694,4.16341665 C32.0403073,4.09706738 33.1212096,3.98095616 33.4116013,3.89801957 C33.7181258,3.79849567 34.6054337,3.68238445 35.3798115,3.61603518 C36.686574,3.51651127 36.8156369,3.54968591 37.1221615,3.86484494 C37.7513434,4.56151226 38.2353295,4.14682933 38.2353295,2.93595517 C38.2353295,2.15635125 38.4289239,1.95730344 39.4614276,1.69190637 C40.0906096,1.52603319 40.3164698,1.36016002 40.7359244,0.746429279 C41.0101832,0.331746346 41.3489735,0 41.4619036,0 C41.5909665,0 41.7684281,0.298571712 41.8652253,0.696667327 C42.1878827,2.02365271 43.026792,2.4880976 43.4785123,1.57579515 C43.6721068,1.19428685 43.8334355,1.07817563 44.2044915,1.07817563 C44.7852748,1.07817563 44.9627364,1.3435727 44.6239461,1.725081 C44.4948832,1.87436686 44.3174216,2.27246247 44.2528901,2.60420882 C44.1722258,2.93595517 43.8818341,3.46674932 43.5914424,3.79849567 C43.0913235,4.37905177 43.026792,4.39563909 41.9458897,4.39563909 C41.0263161,4.39563909 40.7520573,4.46198836 40.4939313,4.72738544 C39.5904906,5.65627521 40.413267,6.00460887 43.8495684,6.13730741 C45.140198,6.20365668 47.2858697,6.83397474 47.5278628,7.23207035 C47.5762614,7.31500694 47.7214572,7.38135621 47.8666531,7.38135621 C48.124779,7.38135621 48.7055623,7.72968987 50.8673669,9.15619916 C51.4642831,9.53770746 52.4322553,10.2012002 53.0453044,10.5827085 C53.6422206,10.9808041 54.5456613,11.5945348 55.0780461,11.9594558 C55.5942979,12.3077895 56.1750812,12.7058851 56.3686757,12.805409 C56.8687947,13.120568 57.820634,13.070806 58.2400886,12.7224724 C58.5788789,12.440488 58.5950118,12.3409641 58.4659488,11.5945348 C58.3530187,10.9642167 58.3852845,10.5992958 58.5788789,9.98556503 C58.9983335,8.72492891 59.1273965,8.69175428 59.8533757,9.53770746 C60.4502919,10.2509621 60.4825576,10.3338987 60.4986905,11.4120743 C60.4986905,12.5400119 60.6438863,12.9049329 61.4989284,13.9333465 C61.7086557,14.1821563 61.7731872,14.6300139 61.805453,15.8243007 L61.8377187,17.3835086 L61.0472081,18.2792237 C60.4825576,18.9095417 59.8695085,19.3573993 58.8854035,19.8550188 C57.6915711,20.4687496 57.3366479,20.5682735 56.2396127,20.6180354 C55.4975007,20.6677974 54.2552697,20.5682735 53.222766,20.4024003 C50.3027165,19.9213681 49.4315415,20.1701779 49.0604855,21.6464491 C48.9314225,22.2104179 48.5764993,24.880976 48.1731776,28.6131224 C47.9473174,30.6533624 48.0763804,30.2884414 46.0759045,34.1698737 C45.7371142,34.8001917 45.2047295,35.6295576 44.8820721,36.0110659 C44.5594147,36.3925742 44.0270299,37.0726542 43.7205054,37.5039245 C43.4139809,37.951782 43.0590577,38.4162269 42.9461276,38.5655128 C42.8170647,38.6982113 41.9942883,39.8261489 41.1069804,41.0536104 C38.9935744,43.9563909 38.5741198,44.4540104 37.557749,45.2336143 C36.686574,45.9136943 35.1378184,47.2240924 34.686098,47.6885373 C34.5409022,47.8378232 34.1375805,48.1695695 33.7987902,48.4349666 C32.9276152,49.0984593 30.3302231,51.3045725 29.1686564,52.3827481 C28.6362717,52.847193 28.2490828,52.9135423 27.6360337,52.6647325 Z" id="Shape"></path>
                    </g>
                </g>
                <g id="bird" transform="translate(57.834861, 346.145335) rotate(-20.000000) translate(-57.834861, -346.145335) translate(26.334861, 319.145335)" fill="#8795A4" fill-rule="nonzero">
                    <g id="Group" transform="translate(31.006294, 27.326245) scale(-1, 1) rotate(-180.000000) translate(-31.006294, -27.326245) translate(0.006294, 0.826245)">
                        <path d="M27.6360337,52.6647325 C27.2165791,52.482272 27.1520476,52.2002876 27.5069708,52.0675891 C27.6360337,52.0178271 27.8296282,51.6694935 27.9425583,51.3211598 C28.0393555,50.9562388 28.2168171,50.5913178 28.34588,50.4917939 C28.604006,50.2595715 28.6362717,49.347269 28.3781458,49.347269 C28.2813485,49.347269 27.8296282,49.7785393 27.3779078,50.2927461 C25.3290333,52.6315579 25.2806347,52.6647325 24.3771939,52.6647325 C23.4414875,52.6647325 23.2317602,52.43251 23.6028162,51.802192 C23.7318791,51.5865569 23.8932078,51.2050486 23.9416064,50.9396515 C24.0061379,50.6576671 24.2158652,50.2098095 24.4094597,49.9444125 C24.6030541,49.6624281 24.8450472,49.1979832 24.9418444,48.9159988 L25.119306,48.3852046 L24.3771939,48.716951 C23.9738722,48.8994115 23.5221518,49.1482212 23.376956,49.2809198 C23.0220328,49.6126661 22.9736342,49.5794915 22.3444523,48.9325861 C21.6830046,48.2690934 21.6668717,48.1363949 22.1024592,47.5724261 C22.2799208,47.3402036 22.4251166,47.0250446 22.4251166,46.8757587 C22.4251166,46.7264729 22.747774,45.9302817 23.1672287,45.1340904 C23.5705504,44.3213119 23.8609421,43.5582953 23.8125435,43.4421841 C23.6512148,43.0275011 22.9091027,43.176787 19.6825287,44.3047246 C19.2792069,44.4374231 18.4564306,44.6862329 17.8272486,44.852106 C17.2141995,45.0345665 16.4882204,45.2502016 16.2139616,45.3497256 C15.3427866,45.6648846 14.1328213,46.0463929 13.0680519,46.3615519 C11.680625,46.7762348 10.5835899,47.1411558 9.59948478,47.5226641 C9.16389728,47.7051246 8.53471534,47.9041724 8.2281908,47.9539344 C7.92166627,48.0202836 7.40541442,48.2027441 7.09888988,48.35203 C6.79236535,48.5013158 6.17931628,48.7335383 5.72759591,48.8330622 C5.29200841,48.9491734 4.80802231,49.1482212 4.67895934,49.2643324 C4.45309916,49.4633802 4.29177046,49.4467929 3.48512694,49.1150466 C2.29129454,48.6174271 2.21063019,48.5179032 2.37195889,47.8378232 C2.54942047,47.1909178 3.38832972,46.6103617 4.43696629,46.4279012 C4.79188944,46.3781392 5.38880564,46.1956787 5.75986165,46.0298056 C6.14705054,45.8639324 6.79236535,45.6648846 7.21181998,45.5985353 C8.11526071,45.4658368 8.59924682,45.2502016 8.47018386,45.0179792 C8.30885515,44.7691694 5.92119035,44.852106 4.58216212,45.1506777 C3.51739268,45.3829002 3.22700102,45.3994875 2.35582602,45.2004397 C1.82344131,45.0843285 1.08132927,44.9350426 0.726406127,44.8852807 C0.0326927054,44.7691694 -0.257698959,44.2881372 0.274685759,44.0890894 C0.436014462,44.0393275 0.710273257,43.8236924 0.88773483,43.6246446 C1.24265798,43.2099616 3.01727371,42.6128182 4.30790333,42.446945 C5.42107138,42.3142465 6.13091767,42.0488494 6.13091767,41.8000396 C6.13091767,41.4682933 5.69533017,41.3687694 3.67872139,41.3024201 C1.46851816,41.2360709 0.9038677,41.086785 0.839336219,40.5725782 C0.807070478,40.356943 0.839336219,40.1247206 0.92000057,40.041784 C0.984532051,39.9754347 2.00090288,39.7929743 3.14633667,39.6436884 C5.42107138,39.361704 6.45357507,39.1294816 6.45357507,38.9138464 C6.45357507,38.6650367 5.93732322,38.5323381 4.63056073,38.4494015 C3.93684731,38.3996396 3.33993111,38.2835284 3.2915325,38.2171791 C3.24313389,38.1342425 3.48512694,37.8024962 3.80778435,37.4541625 C4.38856768,36.8736064 4.45309916,36.8404318 5.74372878,36.7740825 C7.43768016,36.6745586 7.55061025,36.5750347 7.29248433,35.2646366 C7.0343584,33.9874132 7.0343584,33.9376512 7.51834451,33.7551907 C7.76033756,33.6556668 8.13139358,33.4234444 8.37338664,33.2409839 C8.59924682,33.0585234 9.2606945,32.5443166 9.82534496,32.096459 C10.3899954,31.6320141 10.9062473,31.2670931 10.9707787,31.2670931 C11.1159746,31.2670931 12.9551218,29.7576473 13.5036394,29.2102658 C13.7133667,28.9946307 14.5845417,28.4472492 15.4395838,27.9993916 C17.7143185,26.8216921 19.0049481,25.511294 21.3280815,21.9947828 C21.5378088,21.6962111 21.9895291,21.0990676 22.3605852,20.6677974 C22.7155083,20.2531144 23.4737532,19.3076374 24.0384037,18.5777954 C24.6030541,17.8479534 25.3129004,16.9854129 25.619425,16.6536666 C26.3776699,15.8077134 27.9102925,13.6679495 27.9102925,13.435727 C27.9102925,13.3362031 28.0877541,13.0044568 28.3136143,12.6892978 C29.0395935,11.6774714 28.9589291,11.5281855 26.9907189,9.86945381 C25.990481,9.02350062 25.9420824,9.0069133 24.1029351,8.69175428 C23.0704315,8.5258811 21.4732773,8.32683329 20.5537037,8.27707134 C19.6179972,8.21072207 18.8274866,8.09461085 18.7629551,8.01167427 C18.7145565,7.91215036 18.7468222,7.67992792 18.8436194,7.49746743 C19.1017454,6.96667327 19.3598713,5.49040203 19.3598713,4.64444885 C19.3598713,3.84825762 19.4082699,3.78190835 21.2796829,1.37674734 C22.4089838,-0.0829365866 22.747774,-0.149285856 24.0384037,0.746429279 C24.2642639,0.912302453 24.8450472,1.31039807 25.3290333,1.64214441 C25.8130194,1.97389076 26.3938027,2.37198638 26.6196629,2.52127223 C26.8455231,2.67055809 27.5231036,3.13500297 28.1200198,3.53309859 L29.217055,4.27952787 L31.0400694,4.16341665 C32.0403073,4.09706738 33.1212096,3.98095616 33.4116013,3.89801957 C33.7181258,3.79849567 34.6054337,3.68238445 35.3798115,3.61603518 C36.686574,3.51651127 36.8156369,3.54968591 37.1221615,3.86484494 C37.7513434,4.56151226 38.2353295,4.14682933 38.2353295,2.93595517 C38.2353295,2.15635125 38.4289239,1.95730344 39.4614276,1.69190637 C40.0906096,1.52603319 40.3164698,1.36016002 40.7359244,0.746429279 C41.0101832,0.331746346 41.3489735,0 41.4619036,0 C41.5909665,0 41.7684281,0.298571712 41.8652253,0.696667327 C42.1878827,2.02365271 43.026792,2.4880976 43.4785123,1.57579515 C43.6721068,1.19428685 43.8334355,1.07817563 44.2044915,1.07817563 C44.7852748,1.07817563 44.9627364,1.3435727 44.6239461,1.725081 C44.4948832,1.87436686 44.3174216,2.27246247 44.2528901,2.60420882 C44.1722258,2.93595517 43.8818341,3.46674932 43.5914424,3.79849567 C43.0913235,4.37905177 43.026792,4.39563909 41.9458897,4.39563909 C41.0263161,4.39563909 40.7520573,4.46198836 40.4939313,4.72738544 C39.5904906,5.65627521 40.413267,6.00460887 43.8495684,6.13730741 C45.140198,6.20365668 47.2858697,6.83397474 47.5278628,7.23207035 C47.5762614,7.31500694 47.7214572,7.38135621 47.8666531,7.38135621 C48.124779,7.38135621 48.7055623,7.72968987 50.8673669,9.15619916 C51.4642831,9.53770746 52.4322553,10.2012002 53.0453044,10.5827085 C53.6422206,10.9808041 54.5456613,11.5945348 55.0780461,11.9594558 C55.5942979,12.3077895 56.1750812,12.7058851 56.3686757,12.805409 C56.8687947,13.120568 57.820634,13.070806 58.2400886,12.7224724 C58.5788789,12.440488 58.5950118,12.3409641 58.4659488,11.5945348 C58.3530187,10.9642167 58.3852845,10.5992958 58.5788789,9.98556503 C58.9983335,8.72492891 59.1273965,8.69175428 59.8533757,9.53770746 C60.4502919,10.2509621 60.4825576,10.3338987 60.4986905,11.4120743 C60.4986905,12.5400119 60.6438863,12.9049329 61.4989284,13.9333465 C61.7086557,14.1821563 61.7731872,14.6300139 61.805453,15.8243007 L61.8377187,17.3835086 L61.0472081,18.2792237 C60.4825576,18.9095417 59.8695085,19.3573993 58.8854035,19.8550188 C57.6915711,20.4687496 57.3366479,20.5682735 56.2396127,20.6180354 C55.4975007,20.6677974 54.2552697,20.5682735 53.222766,20.4024003 C50.3027165,19.9213681 49.4315415,20.1701779 49.0604855,21.6464491 C48.9314225,22.2104179 48.5764993,24.880976 48.1731776,28.6131224 C47.9473174,30.6533624 48.0763804,30.2884414 46.0759045,34.1698737 C45.7371142,34.8001917 45.2047295,35.6295576 44.8820721,36.0110659 C44.5594147,36.3925742 44.0270299,37.0726542 43.7205054,37.5039245 C43.4139809,37.951782 43.0590577,38.4162269 42.9461276,38.5655128 C42.8170647,38.6982113 41.9942883,39.8261489 41.1069804,41.0536104 C38.9935744,43.9563909 38.5741198,44.4540104 37.557749,45.2336143 C36.686574,45.9136943 35.1378184,47.2240924 34.686098,47.6885373 C34.5409022,47.8378232 34.1375805,48.1695695 33.7987902,48.4349666 C32.9276152,49.0984593 30.3302231,51.3045725 29.1686564,52.3827481 C28.6362717,52.847193 28.2490828,52.9135423 27.6360337,52.6647325 Z" id="Shape"></path>
                    </g>
                </g>
                <g id="bird" transform="translate(403.582015, 194.513437) rotate(-20.000000) translate(-403.582015, -194.513437) translate(310.582015, 115.013437)" fill="#8795A4" fill-rule="nonzero">
                    <g id="Group" transform="translate(92.518779, 79.168144) scale(-1, 1) rotate(-180.000000) translate(-92.518779, -79.168144) translate(0.018779, 0.168144)">
                        <path d="M82.4529898,157.126912 C81.2015335,156.582536 81.0090018,155.741226 82.0679263,155.345316 C82.4529898,155.19685 83.030585,154.157585 83.3675156,153.11832 C83.6563132,152.029567 84.1857754,150.940813 84.5708389,150.643881 C85.3409658,149.951038 85.4372317,147.229154 84.6671048,147.229154 C84.3783072,147.229154 83.030585,148.515863 81.6828629,150.050015 C75.5699802,157.027935 75.4255814,157.126912 72.7301371,157.126912 C69.938427,157.126912 69.3126988,156.434069 70.4197563,154.553495 C70.8048198,153.910141 71.2861491,152.771899 71.4305479,151.980078 C71.6230797,151.138769 72.2488078,149.802571 72.826403,149.010751 C73.4039982,148.169441 74.1259922,146.783755 74.4147898,145.942446 L74.9442521,144.358804 L72.7301371,145.34858 C71.5268138,145.892957 70.1790916,146.635289 69.7458952,147.031199 C68.6869707,148.020975 68.5425719,147.921997 66.6653875,145.991934 C64.6919372,144.012383 64.6438042,143.616472 65.9433934,141.933853 C66.4728557,141.24101 66.9060521,140.300723 66.9060521,139.855324 C66.9060521,139.409925 67.8687108,137.034463 69.1201671,134.659001 C70.3234904,132.23405 71.1898833,129.957566 71.0454844,129.611144 C70.5641551,128.373925 68.3500401,128.819324 58.7234533,132.184562 C57.52013,132.580472 55.0653504,133.322804 53.1881659,133.817692 C51.3591144,134.362068 49.1931324,135.005423 48.3748725,135.302355 C45.7756941,136.242642 42.165724,137.380885 38.9889504,138.321172 C34.8495181,139.558391 31.5764786,140.647145 28.6403696,141.785387 C27.3407804,142.329764 25.4635959,142.923629 24.5490702,143.072096 C23.6345445,143.270051 22.0942906,143.814428 21.1797648,144.259827 C20.2652391,144.705226 18.4361876,145.398069 17.0884654,145.695002 C15.7888762,146.041423 14.3448882,146.635289 13.9598247,146.98171 C13.2859636,147.575576 12.8046343,147.526087 10.3979876,146.536311 C6.83615049,145.051647 6.59548582,144.754715 7.07681516,142.725674 C7.60627744,140.795611 10.10919,139.063504 13.2378307,138.519127 C14.2967553,138.37066 16.0776738,137.826284 17.1847313,137.331396 C18.3399217,136.836508 20.2652391,136.242642 21.5166954,136.044687 C24.2121397,135.648777 25.6561277,135.005423 25.2710642,134.31258 C24.7897349,133.570248 17.6660606,133.817692 13.6710271,134.70849 C10.4942535,135.401333 9.62786066,135.450822 7.02868223,134.856956 C5.44029541,134.510535 3.22618044,134.065136 2.16725589,133.916669 C0.0975397314,133.570248 -0.768853081,132.135073 0.819533741,131.541207 C1.30086308,131.392741 2.11912296,130.749387 2.64858523,130.155521 C3.70750978,128.918301 9.00213252,127.136705 12.8527672,126.641817 C16.1739397,126.245907 18.2917888,125.454086 18.2917888,124.711754 C18.2917888,123.721978 16.9921996,123.425045 10.9755828,123.22709 C4.38137086,123.029135 2.69671817,122.583736 2.50418643,121.049584 C2.40792056,120.406229 2.50418643,119.713386 2.7448511,119.465942 C2.93738284,119.267987 5.96975768,118.72361 9.38719599,118.278211 C16.1739397,117.436902 19.2544475,116.744059 19.2544475,116.100704 C19.2544475,115.358373 17.7141936,114.962462 13.8154259,114.715018 C11.7457098,114.566552 9.9647912,114.22013 9.8203924,114.022175 C9.6759936,113.774731 10.3979876,112.784955 11.3606463,111.745691 C13.0934319,110.013583 13.2859636,109.914605 17.1365984,109.71665 C22.1905564,109.419718 22.527487,109.122785 21.75736,105.21317 C20.9872331,101.402533 20.9872331,101.254067 22.4312211,100.70969 C23.1532151,100.412758 24.2602726,99.7199145 24.9822666,99.1755378 C25.6561277,98.6311611 27.629578,97.0970085 29.3142307,95.7608112 C30.9988834,94.375125 32.5391372,93.2863716 32.731669,93.2863716 C33.1648654,93.2863716 38.6520199,88.7828916 40.2885396,87.1497615 C40.9142678,86.5064072 43.5134462,84.8732771 46.0644917,83.5370797 C52.8512354,80.0233755 56.7018701,76.113761 63.6330126,65.6221373 C64.2587408,64.731339 65.6064629,62.9497425 66.7135204,61.663034 C67.7724449,60.4258142 70.0346928,57.6049531 71.7193455,55.4274463 C73.4039982,53.2499394 75.5218473,50.6765223 76.4363731,49.6867465 C78.698621,47.1628181 83.2712497,40.778764 83.2712497,40.085921 C83.2712497,39.7889882 83.800712,38.7992124 84.474573,37.8589253 C86.6405551,34.8401091 86.3998904,34.39471 80.5276724,29.4458308 C77.5434305,26.9219025 77.3990317,26.8724137 71.9118773,25.9321266 C68.8313695,25.4372387 64.066209,24.8433732 61.3226318,24.6949069 C58.5309216,24.4969517 56.1724078,24.1505302 55.9798761,23.9030862 C55.8354773,23.6061534 55.9317432,22.9133104 56.2205408,22.3689337 C56.9906677,20.7852923 57.7607947,16.3807899 57.7607947,13.8568616 C57.7607947,11.4813996 57.9051935,11.2834444 63.4886138,4.10756968 C66.8579192,-0.247443956 67.8687108,-0.445399122 71.7193455,2.22699561 C72.3932066,2.72188352 74.1259922,3.90961451 75.5699802,4.89939034 C77.0139683,5.88916616 78.7467539,7.07689716 79.420615,7.52229628 C80.094476,7.9676954 82.1160593,9.35338156 83.8969778,10.5411125 L87.1700173,12.7681082 L92.6090389,12.4216866 C95.5932808,12.2237315 98.8181874,11.8773099 99.6845802,11.629866 C100.599106,11.3329332 103.246417,10.9865117 105.556798,10.7885565 C109.455566,10.4916238 109.840629,10.5906013 110.755155,11.5308884 C112.632339,13.6094176 114.076327,12.3721978 114.076327,8.75951606 C114.076327,6.43354287 114.653923,5.83967737 117.73443,5.04785671 C119.611615,4.5529688 120.285476,4.05808089 121.536932,2.22699561 C122.355192,0.989775826 123.365984,0 123.702914,0 C124.087978,0 124.61744,0.890798243 124.906238,2.07852923 C125.868896,6.03763254 128.371809,7.42331869 129.719531,4.70143517 C130.297126,3.56319297 130.778456,3.21677143 131.885513,3.21677143 C133.618299,3.21677143 134.147761,4.0085921 133.136969,5.14683429 C132.751906,5.59223342 132.222444,6.77996441 132.029912,7.76974023 C131.789247,8.75951606 130.922854,10.3431574 130.056462,11.3329332 C128.564341,13.0650409 128.371809,13.1145297 125.146902,13.1145297 C122.403325,13.1145297 121.585065,13.3124849 120.814938,14.1043055 C118.119494,16.8756778 120.574274,17.9149424 130.826588,18.3108528 C134.677223,18.5088079 141.078903,20.389382 141.800897,21.577113 C141.945296,21.824557 142.378493,22.0225121 142.811689,22.0225121 C143.581816,22.0225121 145.314602,23.0617767 151.764415,27.3178128 C153.545333,28.456055 156.433309,30.4356066 158.262361,31.5738488 C160.043279,32.7615798 162.738724,34.5926651 164.327111,35.6814185 C165.867364,36.7206831 167.60015,37.9084141 168.177745,38.2053469 C169.669866,39.1456339 172.509709,38.9971675 173.761166,37.9579029 C174.771957,37.1165935 174.82009,36.8196607 174.435027,34.5926651 C174.098096,32.712091 174.194362,31.6233376 174.771957,29.7922524 C176.023414,26.0311042 176.408477,25.9321266 178.574459,28.456055 C180.355378,30.584073 180.451643,30.831517 180.499776,34.0482884 C180.499776,37.4135262 180.932973,38.5022796 183.484018,41.5705847 C184.109746,42.3129166 184.302278,43.6491139 184.398544,47.2123069 L184.49481,51.8642533 L182.136296,54.536648 C180.451643,56.4172221 178.622592,57.7534194 175.686483,59.2380832 C172.124646,61.0691685 171.065721,61.3661012 167.792682,61.5145676 C165.578567,61.663034 161.872331,61.3661012 158.791823,60.8712133 C150.079762,59.4360383 147.480584,60.1783702 146.373526,64.5828726 C145.988463,66.2654915 144.929538,74.2331869 143.726215,85.368165 C143.052354,91.4552863 143.437417,90.3665329 137.468933,101.94691 C136.458142,103.827484 134.869755,106.301924 133.907096,107.440166 C132.944438,108.578408 131.356051,110.607449 130.441525,111.894157 C129.526999,113.230354 128.468075,114.616041 128.131144,115.06144 C127.746081,115.45735 125.291301,118.822588 122.64399,122.484758 C116.338575,131.145297 115.087119,132.629961 112.054744,134.955934 C109.455566,136.984974 104.834804,140.894589 103.487082,142.280275 C103.053886,142.725674 101.850562,143.71545 100.839771,144.507271 C98.2405922,146.486822 90.4911898,153.068831 87.0256185,156.285603 C85.4372317,157.671289 84.2820413,157.869244 82.4529898,157.126912 Z" id="Shape"></path>
                    </g>
                </g>
                <g id="Ethereum-Logo" transform="translate(388.000000, 18.000000)">
                    <polygon id="Triangle-3" fill="#C1D0E0" points="16 0 16 19.3041912 0 26.5"></polygon>
                    <polygon id="Triangle-3" fill="#C1D0E0" points="16 38.9500569 16 51.9122486 0 29.5"></polygon>
                    <polygon id="Triangle-3" fill="#A5B4C5" transform="translate(24.000000, 40.706124) scale(-1, 1) translate(-24.000000, -40.706124) " points="32 38.9500569 32 51.9122486 16 29.5"></polygon>
                    <polygon id="Triangle-3" fill="#A5B4C5" transform="translate(24.000000, 13.250000) scale(-1, 1) translate(-24.000000, -13.250000) " points="32 0 32 19.3041912 16 26.5"></polygon>
                    <polygon id="Path-2" fill="#A5B4C5" points="0 26.4882954 15.9815519 35.9350137 15.9815519 19.3000031"></polygon>
                    <polygon id="Path-2" fill="#8795A4" transform="translate(23.981552, 27.617508) scale(-1, 1) translate(-23.981552, -27.617508) " points="15.9815519 26.4882954 31.9815519 35.9350137 31.9815519 19.3000031"></polygon>
                </g>
                <g id="Ethereum-Logo" transform="translate(388.000000, 319.000000)">
                    <polygon id="Triangle-3" fill="#C1D0E0" points="16 0 16 19.3041912 0 26.5"></polygon>
                    <polygon id="Triangle-3" fill="#C1D0E0" points="16 38.9500569 16 51.9122486 0 29.5"></polygon>
                    <polygon id="Triangle-3" fill="#A5B4C5" transform="translate(24.000000, 40.706124) scale(-1, 1) translate(-24.000000, -40.706124) " points="32 38.9500569 32 51.9122486 16 29.5"></polygon>
                    <polygon id="Triangle-3" fill="#A5B4C5" transform="translate(24.000000, 13.250000) scale(-1, 1) translate(-24.000000, -13.250000) " points="32 0 32 19.3041912 16 26.5"></polygon>
                    <polygon id="Path-2" fill="#A5B4C5" points="0 26.4882954 15.9815519 35.9350137 15.9815519 19.3000031"></polygon>
                    <polygon id="Path-2" fill="#8795A4" transform="translate(23.981552, 27.617508) scale(-1, 1) translate(-23.981552, -27.617508) " points="15.9815519 26.4882954 31.9815519 35.9350137 31.9815519 19.3000031"></polygon>
                </g>
                <path d="M128.5,45.5 L346.502294,45.5" id="Line-2" stroke="#8795A4" stroke-width="4" stroke-linecap="round" stroke-linejoin="round"></path>
                <path d="M52.5,99.5 L52.5,292.109709" id="Line-2" stroke="#8795A4" stroke-width="4" stroke-linecap="round" stroke-linejoin="round"></path>
                <path d="M762.5,99.5 L762.5,292.109709" id="Line-2" stroke="#8795A4" stroke-width="4" stroke-linecap="round" stroke-linejoin="round"></path>
                <path d="M461.5,45.5 L679.502294,45.5" id="Line-2" stroke="#8795A4" stroke-width="4" stroke-linecap="round" stroke-linejoin="round"></path>
                <path d="M128.5,344.5 L346.502294,344.5" id="Line-2" stroke="#8795A4" stroke-width="4" stroke-linecap="round" stroke-linejoin="round"></path>
                <path d="M461.5,344.5 L679.502294,344.5" id="Line-2" stroke="#8795A4" stroke-width="4" stroke-linecap="round" stroke-linejoin="round"></path>
            </g>
        </g>
    </g>
</svg>