<?xml version="1.0" encoding="UTF-8"?>
<svg width="1030px" height="798px" viewBox="0 0 1030 798" version="1.1" xmlns="http://www.w3.org/2000/svg" xmlns:xlink="http://www.w3.org/1999/xlink">
    <!-- Generator: Sketch 50.2 (55047) - http://www.bohemiancoding.com/sketch -->
    <title>Structure</title>
    <desc>Created with Sketch.</desc>
    <defs></defs>
    <g id="Page-1" stroke="none" stroke-width="1" fill="none" fill-rule="evenodd">
        <g id="Structure">
            <path d="M114.5,456.5 L716.5,113.5" id="Line" stroke="#D1E1F1" stroke-width="20" stroke-linecap="square"></path>
            <path d="M114.5,456.5 L716.5,113.5" id="Line" stroke="#8795A4" stroke-width="11" stroke-linecap="square"></path>
            <path d="M927.5,694.5 L716.5,113.5" id="Line" stroke="#D1E1F1" stroke-width="20" stroke-linecap="square"></path>
            <path d="M927.5,694.5 L716.5,113.5" id="Line" stroke="#8795A4" stroke-width="11" stroke-linecap="square"></path>
            <path d="M114.5,456.5 L924.5,702.5" id="Line" stroke="#D1E1F1" stroke-width="20" stroke-linecap="square"></path>
            <path d="M114.5,456.5 L924.5,702.5" id="Line" stroke="#8795A4" stroke-width="11" stroke-linecap="square"></path>
            <circle id="Oval-2" fill="#D1E1F1" cx="108" cy="449" r="108"></circle>
            <circle id="Oval-2" fill="#D1E1F1" cx="922" cy="690" r="108"></circle>
            <circle id="Oval-2" fill="#D1E1F1" cx="706" cy="108" r="108"></circle>
            <g id="bird" transform="translate(107.713882, 448.633666) rotate(-20.000000) translate(-107.713882, -448.633666) translate(48.713882, 398.133666)" fill="#8795A4" fill-rule="nonzero">
                <g id="Group" transform="translate(58.511880, 50.064460) scale(-1, 1) rotate(-180.000000) translate(-58.511880, -50.064460) translate(0.011880, 0.064460)">
                    <path d="M52.1635628,99.405729 C51.3718338,99.0613312 51.2500294,98.52908 51.9199539,98.2786089 C52.1635628,98.1846822 52.5289761,97.5271955 52.7421339,96.8697088 C52.9248406,96.1809132 53.2598028,95.4921176 53.5034118,95.3042642 C53.9906296,94.8659398 54.0515318,93.1439508 53.564314,93.1439508 C53.3816073,93.1439508 52.5289761,93.9579819 51.676345,94.9285575 C47.8090536,99.3431112 47.7177002,99.405729 46.0124379,99.405729 C44.2462733,99.405729 43.8504089,98.9674045 44.5507845,97.7776666 C44.7943934,97.370651 45.0989045,96.6505465 45.1902579,96.1496043 C45.3120623,95.6173531 45.7079268,94.7720131 46.0733401,94.2710708 C46.4387535,93.7388197 46.8955202,92.8621707 47.0782269,92.3299196 L47.4131891,91.3280351 L46.0124379,91.9542129 C45.2511601,92.2986107 44.3985289,92.7682441 44.1244689,93.0187152 C43.4545444,93.644893 43.3631911,93.5822752 42.1755977,92.3612285 C40.927102,91.1088728 40.8966509,90.8584017 41.718831,89.7938994 C42.0537932,89.3555749 42.3278532,88.760706 42.3278532,88.478926 C42.3278532,88.197146 42.9368755,86.6943192 43.7286044,85.1914924 C44.4898823,83.6573568 45.0380023,82.2171478 44.9466489,81.9979856 C44.6421378,81.2152633 43.2413866,81.4970433 37.151164,83.6260479 C36.3898861,83.876519 34.8368794,84.3461524 33.649286,84.6592413 C32.4921437,85.0036391 31.1218436,85.4106547 30.6041746,85.598508 C28.9598145,86.1933769 26.675981,86.9134814 24.6662076,87.5083504 C22.0474118,88.2910726 19.9767361,88.9798682 18.1192182,89.6999727 C17.2970382,90.0443705 16.1094448,90.4200772 15.5308736,90.5140039 C14.9523025,90.6392395 13.9778669,90.9836373 13.3992957,91.2654173 C12.8207246,91.5471973 11.6635823,91.9855218 10.8109511,92.1733751 C9.98877103,92.3925374 9.07523763,92.7682441 8.83162873,92.9874063 C8.40531314,93.363113 8.10080201,93.3318041 6.57824635,92.7056263 C4.32486398,91.7663595 4.17260841,91.5785062 4.47711954,90.2948417 C4.81208179,89.0737949 6.39553967,87.9779837 8.37486203,87.6335859 C9.04478652,87.5396593 10.1714777,87.1952615 10.8718533,86.8821726 C11.60268,86.5690836 12.8207246,86.1933769 13.6124535,86.0681414 C15.3177158,85.8176703 16.2312492,85.4106547 15.9876403,84.9723302 C15.6831292,84.5026968 11.1763644,84.6592413 8.64892205,85.2228013 C6.63914858,85.6611258 6.09102854,85.6924347 4.44666843,85.316728 C3.44178169,85.0975658 2.04103049,84.8157857 1.371106,84.7218591 C0.0617081311,84.5026968 -0.486411906,83.594739 0.518474829,83.2190323 C0.82298596,83.1251056 1.34065488,82.71809 1.67561713,82.3423834 C2.34554162,81.5596611 5.69516407,80.432541 8.13125312,80.1194521 C10.2323799,79.868981 11.5722289,79.3680387 11.5722289,78.8984053 C11.5722289,78.2722275 10.7500489,78.0843742 6.94365971,77.9591386 C2.7718572,77.833903 1.70606824,77.552123 1.58426379,76.5815474 C1.52336156,76.1745318 1.58426379,75.7362074 1.73651936,75.5796629 C1.85832381,75.4544273 3.77674394,75.1100295 5.93877297,74.8282495 C10.2323799,74.2959984 12.1812512,73.8576739 12.1812512,73.4506583 C12.1812512,72.9810249 11.2068156,72.7305538 8.74027539,72.5740094 C7.43087752,72.4800827 6.30418633,72.2609205 6.21283299,72.1356849 C6.12147965,71.9791404 6.57824635,71.3529626 7.18726861,70.6954759 C8.28350869,69.5996647 8.40531314,69.5370469 10.8414022,69.4118114 C14.0387691,69.223958 14.2519269,69.0361047 13.7647091,66.5627023 C13.2774912,64.1519177 13.2774912,64.057991 14.1910246,63.7135932 C14.6477913,63.5257399 15.3481669,63.0874154 15.8049336,62.7430176 C16.2312492,62.3986198 17.4797449,61.4280442 18.5455338,60.5827041 C19.6113228,59.7060552 20.5857584,59.0172596 20.7075629,59.0172596 C20.9816229,59.0172596 24.4530498,56.1681505 25.4883876,55.1349571 C25.8842521,54.7279415 27.5286122,53.6947481 29.1425212,52.849408 C33.4361282,50.6264768 35.8722172,48.1530744 40.2571775,41.5155895 C40.653042,40.9520294 41.5056732,39.8249094 42.2060488,39.0108782 C42.8759733,38.2281559 44.3071756,36.4435491 45.3729645,35.0659579 C46.4387535,33.6883667 47.7786025,32.0603044 48.3571736,31.4341266 C49.7883759,29.8373731 52.6812317,25.7985262 52.6812317,25.3602017 C52.6812317,25.1723484 53.0161939,24.5461706 53.4425095,23.9513016 C54.8128096,22.0414593 54.6605541,21.7596793 50.9455182,18.6287902 C49.0575492,17.0320367 48.9661959,17.0007278 45.494769,16.4058589 C43.5458977,16.09277 40.5312375,15.7170633 38.7955241,15.6231366 C37.0293595,15.497901 35.537255,15.2787388 35.4154505,15.1221944 C35.3240972,14.934341 35.3849994,14.4960165 35.5677061,14.1516187 C36.0549239,13.1497342 36.5421417,10.3632429 36.5421417,8.76648948 C36.5421417,7.26366271 36.6334951,7.13842715 40.1658242,2.59863795 C42.2974021,-0.156544455 42.9368755,-0.281780019 45.3729645,1.4089001 C45.7992801,1.72198901 46.8955202,2.47340239 47.8090536,3.09958021 C48.722587,3.72575803 49.8188271,4.47717141 50.2451426,4.75895143 C50.6714582,5.04073145 51.950405,5.9173804 53.0770962,6.66879379 L55.1477719,8.07769388 L58.5887477,7.85853164 C60.4767167,7.73329608 62.5169413,7.51413384 63.0650613,7.35758939 C63.6436324,7.16973604 65.3184437,6.9505738 66.7800971,6.82533824 C69.2466373,6.63748489 69.4902462,6.70010268 70.0688173,7.29497161 C71.2564107,8.60994503 72.1699441,7.82722275 72.1699441,5.54167371 C72.1699441,4.07015583 72.5353575,3.69444914 74.4842287,3.19350688 C75.6718221,2.88041797 76.0981377,2.56732906 76.8898667,1.4089001 C77.4075356,0.62617782 78.047009,0 78.2601668,0 C78.5037757,0 78.8387379,0.563560038 79.0214446,1.31497342 C79.6304669,3.8196847 81.2139247,4.69633365 82.0665559,2.97434465 C82.4319693,2.25424015 82.7364804,2.03507792 83.436856,2.03507792 C84.5330961,2.03507792 84.8680583,2.53602017 84.2285849,3.25612466 C83.984976,3.53790468 83.6500138,4.28931807 83.5282093,4.91549589 C83.3759538,5.54167371 82.8278337,6.54355822 82.2797137,7.16973604 C81.3357292,8.26554723 81.2139247,8.29685612 79.1737002,8.29685612 C77.4379867,8.29685612 76.9203178,8.42209168 76.4331,8.92303394 C74.7278376,10.6763318 76.2808444,11.3338185 82.7669315,11.5842897 C85.2030206,11.7095252 89.2530186,12.8992631 89.7097853,13.6506765 C89.8011387,13.8072209 90.0751987,13.9324565 90.3492587,13.9324565 C90.8364765,13.9324565 91.9327166,14.5899432 96.0131657,17.2825078 C97.1398569,18.0026123 98.9669237,19.254968 100.124066,19.9750725 C101.250757,20.7264858 102.95602,21.8849148 103.960906,22.5737104 C104.935342,23.2311971 106.031582,23.9826105 106.396995,24.1704639 C107.34098,24.7653328 109.137596,24.6714061 109.929324,24.0139194 C110.568798,23.4816683 110.599249,23.2938149 110.35564,21.8849148 C110.142482,20.695177 110.203384,20.0063814 110.568798,18.8479524 C111.360527,16.4684767 111.604136,16.4058589 112.974436,18.0026123 C114.101127,19.3488946 114.162029,19.5054391 114.19248,21.540517 C114.19248,23.6695216 114.46654,24.3583172 116.080449,26.2994684 C116.476314,26.7691018 116.598118,27.6144419 116.65902,29.868682 L116.719923,32.8117178 L115.227818,34.5023979 C114.162029,35.6921358 113.004887,36.5374758 111.147369,37.4767425 C108.893987,38.6351715 108.224062,38.8230249 106.153386,38.9169515 C104.752635,39.0108782 102.4079,38.8230249 100.459028,38.5099359 C94.9473768,37.6019781 93.3030167,38.0716115 92.6026411,40.8581028 C92.3590322,41.9226051 91.6891077,46.9633365 90.9278298,54.007837 C90.5015143,57.8588306 90.7451232,57.170035 86.9691851,64.4963155 C86.3297118,65.6860533 85.324825,67.2514979 84.7158028,67.9716024 C84.1067805,68.6917069 83.1018938,69.9753714 82.5233226,70.7894026 C81.9447515,71.6347426 81.274827,72.5113916 81.0616692,72.7931716 C80.8180603,73.0436427 79.2650535,75.1726473 77.5902423,77.4895052 C73.6011464,82.9685612 72.8094175,83.9078279 70.8909974,85.3793458 C69.2466373,86.6630103 66.3233304,89.1364127 65.4706992,90.0130617 C65.1966392,90.2948417 64.4353614,90.9210195 63.795888,91.4219617 C62.1515279,92.6743174 57.2488987,96.8383999 55.0564185,98.8734778 C54.0515318,99.7501268 53.3207051,99.8753623 52.1635628,99.405729 Z" id="Shape"></path>
                </g>
            </g>
            <g id="bird" transform="translate(921.713882, 689.633666) rotate(-20.000000) translate(-921.713882, -689.633666) translate(862.713882, 639.133666)" fill="#8795A4" fill-rule="nonzero">
                <g id="Group" transform="translate(58.511880, 50.064460) scale(-1, 1) rotate(-180.000000) translate(-58.511880, -50.064460) translate(0.011880, 0.064460)">
                    <path d="M52.1635628,99.405729 C51.3718338,99.0613312 51.2500294,98.52908 51.9199539,98.2786089 C52.1635628,98.1846822 52.5289761,97.5271955 52.7421339,96.8697088 C52.9248406,96.1809132 53.2598028,95.4921176 53.5034118,95.3042642 C53.9906296,94.8659398 54.0515318,93.1439508 53.564314,93.1439508 C53.3816073,93.1439508 52.5289761,93.9579819 51.676345,94.9285575 C47.8090536,99.3431112 47.7177002,99.405729 46.0124379,99.405729 C44.2462733,99.405729 43.8504089,98.9674045 44.5507845,97.7776666 C44.7943934,97.370651 45.0989045,96.6505465 45.1902579,96.1496043 C45.3120623,95.6173531 45.7079268,94.7720131 46.0733401,94.2710708 C46.4387535,93.7388197 46.8955202,92.8621707 47.0782269,92.3299196 L47.4131891,91.3280351 L46.0124379,91.9542129 C45.2511601,92.2986107 44.3985289,92.7682441 44.1244689,93.0187152 C43.4545444,93.644893 43.3631911,93.5822752 42.1755977,92.3612285 C40.927102,91.1088728 40.8966509,90.8584017 41.718831,89.7938994 C42.0537932,89.3555749 42.3278532,88.760706 42.3278532,88.478926 C42.3278532,88.197146 42.9368755,86.6943192 43.7286044,85.1914924 C44.4898823,83.6573568 45.0380023,82.2171478 44.9466489,81.9979856 C44.6421378,81.2152633 43.2413866,81.4970433 37.151164,83.6260479 C36.3898861,83.876519 34.8368794,84.3461524 33.649286,84.6592413 C32.4921437,85.0036391 31.1218436,85.4106547 30.6041746,85.598508 C28.9598145,86.1933769 26.675981,86.9134814 24.6662076,87.5083504 C22.0474118,88.2910726 19.9767361,88.9798682 18.1192182,89.6999727 C17.2970382,90.0443705 16.1094448,90.4200772 15.5308736,90.5140039 C14.9523025,90.6392395 13.9778669,90.9836373 13.3992957,91.2654173 C12.8207246,91.5471973 11.6635823,91.9855218 10.8109511,92.1733751 C9.98877103,92.3925374 9.07523763,92.7682441 8.83162873,92.9874063 C8.40531314,93.363113 8.10080201,93.3318041 6.57824635,92.7056263 C4.32486398,91.7663595 4.17260841,91.5785062 4.47711954,90.2948417 C4.81208179,89.0737949 6.39553967,87.9779837 8.37486203,87.6335859 C9.04478652,87.5396593 10.1714777,87.1952615 10.8718533,86.8821726 C11.60268,86.5690836 12.8207246,86.1933769 13.6124535,86.0681414 C15.3177158,85.8176703 16.2312492,85.4106547 15.9876403,84.9723302 C15.6831292,84.5026968 11.1763644,84.6592413 8.64892205,85.2228013 C6.63914858,85.6611258 6.09102854,85.6924347 4.44666843,85.316728 C3.44178169,85.0975658 2.04103049,84.8157857 1.371106,84.7218591 C0.0617081311,84.5026968 -0.486411906,83.594739 0.518474829,83.2190323 C0.82298596,83.1251056 1.34065488,82.71809 1.67561713,82.3423834 C2.34554162,81.5596611 5.69516407,80.432541 8.13125312,80.1194521 C10.2323799,79.868981 11.5722289,79.3680387 11.5722289,78.8984053 C11.5722289,78.2722275 10.7500489,78.0843742 6.94365971,77.9591386 C2.7718572,77.833903 1.70606824,77.552123 1.58426379,76.5815474 C1.52336156,76.1745318 1.58426379,75.7362074 1.73651936,75.5796629 C1.85832381,75.4544273 3.77674394,75.1100295 5.93877297,74.8282495 C10.2323799,74.2959984 12.1812512,73.8576739 12.1812512,73.4506583 C12.1812512,72.9810249 11.2068156,72.7305538 8.74027539,72.5740094 C7.43087752,72.4800827 6.30418633,72.2609205 6.21283299,72.1356849 C6.12147965,71.9791404 6.57824635,71.3529626 7.18726861,70.6954759 C8.28350869,69.5996647 8.40531314,69.5370469 10.8414022,69.4118114 C14.0387691,69.223958 14.2519269,69.0361047 13.7647091,66.5627023 C13.2774912,64.1519177 13.2774912,64.057991 14.1910246,63.7135932 C14.6477913,63.5257399 15.3481669,63.0874154 15.8049336,62.7430176 C16.2312492,62.3986198 17.4797449,61.4280442 18.5455338,60.5827041 C19.6113228,59.7060552 20.5857584,59.0172596 20.7075629,59.0172596 C20.9816229,59.0172596 24.4530498,56.1681505 25.4883876,55.1349571 C25.8842521,54.7279415 27.5286122,53.6947481 29.1425212,52.849408 C33.4361282,50.6264768 35.8722172,48.1530744 40.2571775,41.5155895 C40.653042,40.9520294 41.5056732,39.8249094 42.2060488,39.0108782 C42.8759733,38.2281559 44.3071756,36.4435491 45.3729645,35.0659579 C46.4387535,33.6883667 47.7786025,32.0603044 48.3571736,31.4341266 C49.7883759,29.8373731 52.6812317,25.7985262 52.6812317,25.3602017 C52.6812317,25.1723484 53.0161939,24.5461706 53.4425095,23.9513016 C54.8128096,22.0414593 54.6605541,21.7596793 50.9455182,18.6287902 C49.0575492,17.0320367 48.9661959,17.0007278 45.494769,16.4058589 C43.5458977,16.09277 40.5312375,15.7170633 38.7955241,15.6231366 C37.0293595,15.497901 35.537255,15.2787388 35.4154505,15.1221944 C35.3240972,14.934341 35.3849994,14.4960165 35.5677061,14.1516187 C36.0549239,13.1497342 36.5421417,10.3632429 36.5421417,8.76648948 C36.5421417,7.26366271 36.6334951,7.13842715 40.1658242,2.59863795 C42.2974021,-0.156544455 42.9368755,-0.281780019 45.3729645,1.4089001 C45.7992801,1.72198901 46.8955202,2.47340239 47.8090536,3.09958021 C48.722587,3.72575803 49.8188271,4.47717141 50.2451426,4.75895143 C50.6714582,5.04073145 51.950405,5.9173804 53.0770962,6.66879379 L55.1477719,8.07769388 L58.5887477,7.85853164 C60.4767167,7.73329608 62.5169413,7.51413384 63.0650613,7.35758939 C63.6436324,7.16973604 65.3184437,6.9505738 66.7800971,6.82533824 C69.2466373,6.63748489 69.4902462,6.70010268 70.0688173,7.29497161 C71.2564107,8.60994503 72.1699441,7.82722275 72.1699441,5.54167371 C72.1699441,4.07015583 72.5353575,3.69444914 74.4842287,3.19350688 C75.6718221,2.88041797 76.0981377,2.56732906 76.8898667,1.4089001 C77.4075356,0.62617782 78.047009,0 78.2601668,0 C78.5037757,0 78.8387379,0.563560038 79.0214446,1.31497342 C79.6304669,3.8196847 81.2139247,4.69633365 82.0665559,2.97434465 C82.4319693,2.25424015 82.7364804,2.03507792 83.436856,2.03507792 C84.5330961,2.03507792 84.8680583,2.53602017 84.2285849,3.25612466 C83.984976,3.53790468 83.6500138,4.28931807 83.5282093,4.91549589 C83.3759538,5.54167371 82.8278337,6.54355822 82.2797137,7.16973604 C81.3357292,8.26554723 81.2139247,8.29685612 79.1737002,8.29685612 C77.4379867,8.29685612 76.9203178,8.42209168 76.4331,8.92303394 C74.7278376,10.6763318 76.2808444,11.3338185 82.7669315,11.5842897 C85.2030206,11.7095252 89.2530186,12.8992631 89.7097853,13.6506765 C89.8011387,13.8072209 90.0751987,13.9324565 90.3492587,13.9324565 C90.8364765,13.9324565 91.9327166,14.5899432 96.0131657,17.2825078 C97.1398569,18.0026123 98.9669237,19.254968 100.124066,19.9750725 C101.250757,20.7264858 102.95602,21.8849148 103.960906,22.5737104 C104.935342,23.2311971 106.031582,23.9826105 106.396995,24.1704639 C107.34098,24.7653328 109.137596,24.6714061 109.929324,24.0139194 C110.568798,23.4816683 110.599249,23.2938149 110.35564,21.8849148 C110.142482,20.695177 110.203384,20.0063814 110.568798,18.8479524 C111.360527,16.4684767 111.604136,16.4058589 112.974436,18.0026123 C114.101127,19.3488946 114.162029,19.5054391 114.19248,21.540517 C114.19248,23.6695216 114.46654,24.3583172 116.080449,26.2994684 C116.476314,26.7691018 116.598118,27.6144419 116.65902,29.868682 L116.719923,32.8117178 L115.227818,34.5023979 C114.162029,35.6921358 113.004887,36.5374758 111.147369,37.4767425 C108.893987,38.6351715 108.224062,38.8230249 106.153386,38.9169515 C104.752635,39.0108782 102.4079,38.8230249 100.459028,38.5099359 C94.9473768,37.6019781 93.3030167,38.0716115 92.6026411,40.8581028 C92.3590322,41.9226051 91.6891077,46.9633365 90.9278298,54.007837 C90.5015143,57.8588306 90.7451232,57.170035 86.9691851,64.4963155 C86.3297118,65.6860533 85.324825,67.2514979 84.7158028,67.9716024 C84.1067805,68.6917069 83.1018938,69.9753714 82.5233226,70.7894026 C81.9447515,71.6347426 81.274827,72.5113916 81.0616692,72.7931716 C80.8180603,73.0436427 79.2650535,75.1726473 77.5902423,77.4895052 C73.6011464,82.9685612 72.8094175,83.9078279 70.8909974,85.3793458 C69.2466373,86.6630103 66.3233304,89.1364127 65.4706992,90.0130617 C65.1966392,90.2948417 64.4353614,90.9210195 63.795888,91.4219617 C62.1515279,92.6743174 57.2488987,96.8383999 55.0564185,98.8734778 C54.0515318,99.7501268 53.3207051,99.8753623 52.1635628,99.405729 Z" id="Shape"></path>
                </g>
            </g>
            <g id="bird" transform="translate(705.713882, 107.633666) rotate(-20.000000) translate(-705.713882, -107.633666) translate(646.713882, 57.133666)" fill="#8795A4" fill-rule="nonzero">
                <g id="Group" transform="translate(58.511880, 50.064460) scale(-1, 1) rotate(-180.000000) translate(-58.511880, -50.064460) translate(0.011880, 0.064460)">
                    <path d="M52.1635628,99.405729 C51.3718338,99.0613312 51.2500294,98.52908 51.9199539,98.2786089 C52.1635628,98.1846822 52.5289761,97.5271955 52.7421339,96.8697088 C52.9248406,96.1809132 53.2598028,95.4921176 53.5034118,95.3042642 C53.9906296,94.8659398 54.0515318,93.1439508 53.564314,93.1439508 C53.3816073,93.1439508 52.5289761,93.9579819 51.676345,94.9285575 C47.8090536,99.3431112 47.7177002,99.405729 46.0124379,99.405729 C44.2462733,99.405729 43.8504089,98.9674045 44.5507845,97.7776666 C44.7943934,97.370651 45.0989045,96.6505465 45.1902579,96.1496043 C45.3120623,95.6173531 45.7079268,94.7720131 46.0733401,94.2710708 C46.4387535,93.7388197 46.8955202,92.8621707 47.0782269,92.3299196 L47.4131891,91.3280351 L46.0124379,91.9542129 C45.2511601,92.2986107 44.3985289,92.7682441 44.1244689,93.0187152 C43.4545444,93.644893 43.3631911,93.5822752 42.1755977,92.3612285 C40.927102,91.1088728 40.8966509,90.8584017 41.718831,89.7938994 C42.0537932,89.3555749 42.3278532,88.760706 42.3278532,88.478926 C42.3278532,88.197146 42.9368755,86.6943192 43.7286044,85.1914924 C44.4898823,83.6573568 45.0380023,82.2171478 44.9466489,81.9979856 C44.6421378,81.2152633 43.2413866,81.4970433 37.151164,83.6260479 C36.3898861,83.876519 34.8368794,84.3461524 33.649286,84.6592413 C32.4921437,85.0036391 31.1218436,85.4106547 30.6041746,85.598508 C28.9598145,86.1933769 26.675981,86.9134814 24.6662076,87.5083504 C22.0474118,88.2910726 19.9767361,88.9798682 18.1192182,89.6999727 C17.2970382,90.0443705 16.1094448,90.4200772 15.5308736,90.5140039 C14.9523025,90.6392395 13.9778669,90.9836373 13.3992957,91.2654173 C12.8207246,91.5471973 11.6635823,91.9855218 10.8109511,92.1733751 C9.98877103,92.3925374 9.07523763,92.7682441 8.83162873,92.9874063 C8.40531314,93.363113 8.10080201,93.3318041 6.57824635,92.7056263 C4.32486398,91.7663595 4.17260841,91.5785062 4.47711954,90.2948417 C4.81208179,89.0737949 6.39553967,87.9779837 8.37486203,87.6335859 C9.04478652,87.5396593 10.1714777,87.1952615 10.8718533,86.8821726 C11.60268,86.5690836 12.8207246,86.1933769 13.6124535,86.0681414 C15.3177158,85.8176703 16.2312492,85.4106547 15.9876403,84.9723302 C15.6831292,84.5026968 11.1763644,84.6592413 8.64892205,85.2228013 C6.63914858,85.6611258 6.09102854,85.6924347 4.44666843,85.316728 C3.44178169,85.0975658 2.04103049,84.8157857 1.371106,84.7218591 C0.0617081311,84.5026968 -0.486411906,83.594739 0.518474829,83.2190323 C0.82298596,83.1251056 1.34065488,82.71809 1.67561713,82.3423834 C2.34554162,81.5596611 5.69516407,80.432541 8.13125312,80.1194521 C10.2323799,79.868981 11.5722289,79.3680387 11.5722289,78.8984053 C11.5722289,78.2722275 10.7500489,78.0843742 6.94365971,77.9591386 C2.7718572,77.833903 1.70606824,77.552123 1.58426379,76.5815474 C1.52336156,76.1745318 1.58426379,75.7362074 1.73651936,75.5796629 C1.85832381,75.4544273 3.77674394,75.1100295 5.93877297,74.8282495 C10.2323799,74.2959984 12.1812512,73.8576739 12.1812512,73.4506583 C12.1812512,72.9810249 11.2068156,72.7305538 8.74027539,72.5740094 C7.43087752,72.4800827 6.30418633,72.2609205 6.21283299,72.1356849 C6.12147965,71.9791404 6.57824635,71.3529626 7.18726861,70.6954759 C8.28350869,69.5996647 8.40531314,69.5370469 10.8414022,69.4118114 C14.0387691,69.223958 14.2519269,69.0361047 13.7647091,66.5627023 C13.2774912,64.1519177 13.2774912,64.057991 14.1910246,63.7135932 C14.6477913,63.5257399 15.3481669,63.0874154 15.8049336,62.7430176 C16.2312492,62.3986198 17.4797449,61.4280442 18.5455338,60.5827041 C19.6113228,59.7060552 20.5857584,59.0172596 20.7075629,59.0172596 C20.9816229,59.0172596 24.4530498,56.1681505 25.4883876,55.1349571 C25.8842521,54.7279415 27.5286122,53.6947481 29.1425212,52.849408 C33.4361282,50.6264768 35.8722172,48.1530744 40.2571775,41.5155895 C40.653042,40.9520294 41.5056732,39.8249094 42.2060488,39.0108782 C42.8759733,38.2281559 44.3071756,36.4435491 45.3729645,35.0659579 C46.4387535,33.6883667 47.7786025,32.0603044 48.3571736,31.4341266 C49.7883759,29.8373731 52.6812317,25.7985262 52.6812317,25.3602017 C52.6812317,25.1723484 53.0161939,24.5461706 53.4425095,23.9513016 C54.8128096,22.0414593 54.6605541,21.7596793 50.9455182,18.6287902 C49.0575492,17.0320367 48.9661959,17.0007278 45.494769,16.4058589 C43.5458977,16.09277 40.5312375,15.7170633 38.7955241,15.6231366 C37.0293595,15.497901 35.537255,15.2787388 35.4154505,15.1221944 C35.3240972,14.934341 35.3849994,14.4960165 35.5677061,14.1516187 C36.0549239,13.1497342 36.5421417,10.3632429 36.5421417,8.76648948 C36.5421417,7.26366271 36.6334951,7.13842715 40.1658242,2.59863795 C42.2974021,-0.156544455 42.9368755,-0.281780019 45.3729645,1.4089001 C45.7992801,1.72198901 46.8955202,2.47340239 47.8090536,3.09958021 C48.722587,3.72575803 49.8188271,4.47717141 50.2451426,4.75895143 C50.6714582,5.04073145 51.950405,5.9173804 53.0770962,6.66879379 L55.1477719,8.07769388 L58.5887477,7.85853164 C60.4767167,7.73329608 62.5169413,7.51413384 63.0650613,7.35758939 C63.6436324,7.16973604 65.3184437,6.9505738 66.7800971,6.82533824 C69.2466373,6.63748489 69.4902462,6.70010268 70.0688173,7.29497161 C71.2564107,8.60994503 72.1699441,7.82722275 72.1699441,5.54167371 C72.1699441,4.07015583 72.5353575,3.69444914 74.4842287,3.19350688 C75.6718221,2.88041797 76.0981377,2.56732906 76.8898667,1.4089001 C77.4075356,0.62617782 78.047009,0 78.2601668,0 C78.5037757,0 78.8387379,0.563560038 79.0214446,1.31497342 C79.6304669,3.8196847 81.2139247,4.69633365 82.0665559,2.97434465 C82.4319693,2.25424015 82.7364804,2.03507792 83.436856,2.03507792 C84.5330961,2.03507792 84.8680583,2.53602017 84.2285849,3.25612466 C83.984976,3.53790468 83.6500138,4.28931807 83.5282093,4.91549589 C83.3759538,5.54167371 82.8278337,6.54355822 82.2797137,7.16973604 C81.3357292,8.26554723 81.2139247,8.29685612 79.1737002,8.29685612 C77.4379867,8.29685612 76.9203178,8.42209168 76.4331,8.92303394 C74.7278376,10.6763318 76.2808444,11.3338185 82.7669315,11.5842897 C85.2030206,11.7095252 89.2530186,12.8992631 89.7097853,13.6506765 C89.8011387,13.8072209 90.0751987,13.9324565 90.3492587,13.9324565 C90.8364765,13.9324565 91.9327166,14.5899432 96.0131657,17.2825078 C97.1398569,18.0026123 98.9669237,19.254968 100.124066,19.9750725 C101.250757,20.7264858 102.95602,21.8849148 103.960906,22.5737104 C104.935342,23.2311971 106.031582,23.9826105 106.396995,24.1704639 C107.34098,24.7653328 109.137596,24.6714061 109.929324,24.0139194 C110.568798,23.4816683 110.599249,23.2938149 110.35564,21.8849148 C110.142482,20.695177 110.203384,20.0063814 110.568798,18.8479524 C111.360527,16.4684767 111.604136,16.4058589 112.974436,18.0026123 C114.101127,19.3488946 114.162029,19.5054391 114.19248,21.540517 C114.19248,23.6695216 114.46654,24.3583172 116.080449,26.2994684 C116.476314,26.7691018 116.598118,27.6144419 116.65902,29.868682 L116.719923,32.8117178 L115.227818,34.5023979 C114.162029,35.6921358 113.004887,36.5374758 111.147369,37.4767425 C108.893987,38.6351715 108.224062,38.8230249 106.153386,38.9169515 C104.752635,39.0108782 102.4079,38.8230249 100.459028,38.5099359 C94.9473768,37.6019781 93.3030167,38.0716115 92.6026411,40.8581028 C92.3590322,41.9226051 91.6891077,46.9633365 90.9278298,54.007837 C90.5015143,57.8588306 90.7451232,57.170035 86.9691851,64.4963155 C86.3297118,65.6860533 85.324825,67.2514979 84.7158028,67.9716024 C84.1067805,68.6917069 83.1018938,69.9753714 82.5233226,70.7894026 C81.9447515,71.6347426 81.274827,72.5113916 81.0616692,72.7931716 C80.8180603,73.0436427 79.2650535,75.1726473 77.5902423,77.4895052 C73.6011464,82.9685612 72.8094175,83.9078279 70.8909974,85.3793458 C69.2466373,86.6630103 66.3233304,89.1364127 65.4706992,90.0130617 C65.1966392,90.2948417 64.4353614,90.9210195 63.795888,91.4219617 C62.1515279,92.6743174 57.2488987,96.8383999 55.0564185,98.8734778 C54.0515318,99.7501268 53.3207051,99.8753623 52.1635628,99.405729 Z" id="Shape"></path>
                </g>
            </g>
        </g>
    </g>
</svg>