<?xml version="1.0" encoding="UTF-8"?>
<svg width="711px" height="414px" viewBox="0 0 711 414" version="1.1" xmlns="http://www.w3.org/2000/svg" xmlns:xlink="http://www.w3.org/1999/xlink">
    <!-- Generator: Sketch 50.2 (55047) - http://www.bohemiancoding.com/sketch -->
    <title>Vehicles</title>
    <desc>Created with Sketch.</desc>
    <defs></defs>
    <g id="Page-1" stroke="none" stroke-width="1" fill="none" fill-rule="evenodd">
        <g id="Vehicles" transform="translate(0.000000, -83.000000)" stroke="#FFFFFF" stroke-width="25">
            <g id="Car" transform="translate(0.000000, 313.000000)">
                <rect id="Rectangle-8" x="12.5" y="73.5" width="215" height="65" rx="8"></rect>
                <rect id="Rectangle-7" x="27.5" y="150.5" width="16" height="19" rx="8"></rect>
                <rect id="Rectangle-7" x="196.5" y="150.5" width="16" height="19" rx="8"></rect>
                <polygon id="Path-25" stroke-linecap="round" stroke-linejoin="round" points="18 67 56.3226031 0 182.620765 0 222 67"></polygon>
                <path d="M89.4979589,106 L150.740761,106" id="Line-3" stroke-linecap="round"></path>
                <circle id="Oval-5" cx="41" cy="92" r="8"></circle>
                <circle id="Oval-5" cx="199" cy="92" r="8"></circle>
            </g>
            <g id="Plane" transform="translate(301.514220, 156.358571) rotate(17.000000) translate(-301.514220, -156.358571) translate(126.514220, 46.358571)" stroke-linecap="round" stroke-linejoin="round">
                <path d="M0.471749776,203.332706 C0.471749776,179.242761 11.329144,179.242761 22.9406582,165.94898 C34.5521723,152.655198 28.7496281,154.75057 53.6694363,137.511566 C70.2826418,126.018897 142.624448,105.608242 270.694856,76.2796011 C277.058684,73.0224903 290.520048,51.8920911 311.078949,12.8884037 C353.396682,-42.9035845 341.9173,101.56518 340.351051,130.695481 C339.964168,137.891028 315.718661,148.734766 267.614531,163.226696 C235.173803,172.999843 191.882273,184.432173 137.739941,197.523685 C121.846618,201.36666 95.9028542,207.452809 59.9086513,215.782131 C20.2840503,223.542477 0.471749776,219.392668 0.471749776,203.332706 Z" id="Path-27-Copy"></path>
                <path d="M120.638627,178.803502 C120.638627,170.670973 124.709632,162.834387 180.328335,152.759186 C235.947038,142.683985 241.165861,145.931185 253.557871,152.759186 C265.94988,159.587188 268.371998,163.353745 283.461222,175.497374 C298.550447,187.641002 378.035819,198.515382 336.943858,207.942072 C295.851897,217.368763 278.56949,211.788693 200.508433,204.0117 C122.447376,196.234708 120.638627,186.936031 120.638627,178.803502 Z" id="Path-28" fill="#3178C5" transform="translate(234.624388, 179.627367) rotate(-2.000000) translate(-234.624388, -179.627367) "></path>
            </g>
            <g id="Boat" transform="translate(282.000000, 323.000000)" stroke-linecap="round" stroke-linejoin="round">
                <path d="M69.5,122.5 L261.5,122.5" id="Line-7"></path>
                <path d="M33.6248265,82.375075 L416.21474,82.375075 C383.970134,135.090583 351.9164,161.448338 320.053537,161.448338 C288.190674,161.448338 181.64611,161.448338 0.419845857,161.448338 L33.6248265,82.375075 Z" id="Path-24"></path>
                <polygon id="Path-26" points="73.9174649 82.0219967 95.1621114 25.1510426 219.868098 25.1510426 278.296236 81.0219967"></polygon>
            </g>
        </g>
    </g>
</svg>